<svg width="29" height="29" viewBox="0 0 29 29" fill="none" xmlns="http://www.w3.org/2000/svg">
<path d="M17.2456 10.7935V14.7746H20.8148C21.0894 14.7746 21.2267 15.0491 21.2267 15.3237L20.6776 17.932C20.6776 18.0692 20.403 18.2065 20.2657 18.2065H17.2456V28.2278H13.1273V18.3438H10.7935C10.519 18.3438 10.3817 18.2065 10.3817 17.932V15.3237C10.3817 15.0491 10.519 14.9118 10.7935 14.9118H13.1273V10.3817C13.1273 8.04793 14.9119 6.26332 17.2456 6.26332H20.9521C21.2267 6.26332 21.3639 6.40059 21.3639 6.67515V9.96982C21.3639 10.2444 21.2267 10.3817 20.9521 10.3817H17.6574C17.3829 10.3817 17.2456 10.5189 17.2456 10.7935Z" stroke="white" stroke-width="1.5" stroke-miterlimit="10" stroke-linecap="round"/>
<path d="M18.6183 28.2278H10.3817C3.51775 28.2278 0.772189 25.4822 0.772189 18.6183V10.3817C0.772189 3.51775 3.51775 0.772189 10.3817 0.772189H18.6183C25.4822 0.772189 28.2278 3.51775 28.2278 10.3817V18.6183C28.2278 25.4822 25.4822 28.2278 18.6183 28.2278Z" stroke="white" stroke-width="1.5" stroke-linecap="round" stroke-linejoin="round"/>
</svg>
