<svg width="262" height="264" viewBox="0 0 262 264" fill="none" xmlns="http://www.w3.org/2000/svg">
<ellipse cx="131" cy="131.747" rx="131" ry="131.747" fill="#F8F8F8"/>
<path d="M129.5 104.387C135.185 103.082 135.735 101.745 134.711 101.726C133.142 101.727 132.014 101.62 130.987 101.525C136.432 98.8281 136.329 97.2315 135.309 97.5985C133.599 98.2347 131.806 98.9479 130.253 99.4691C136.051 95.7245 136.453 93.3079 135.49 93.9006C133.939 94.8362 131.494 96.4129 129.65 97.4771C134.271 93.3946 133.126 93.1561 131.433 94.2777C129.449 95.5876 125.275 98.2779 125.009 98.6124C124.733 98.9931 124.499 99.4088 124.314 99.8509C122.671 95.5482 121.73 96.2581 122.035 97.4624C122.56 99.5515 122.775 101.722 122.672 103.892C122.259 105.152 121.747 106.371 121.142 107.536C120.907 107.798 119.9 108.806 118.608 110.058C119.793 112.465 121.664 114.375 123.939 115.499C124.642 114.546 125.302 113.664 125.854 112.872C127.934 109.916 128.401 109.266 128.527 107.093C128.608 105.486 128.451 104.621 129.5 104.387Z" fill="#FFD0C6"/>
<path d="M121.673 85.1102C123.092 81.3809 121.749 82.2868 120.891 83.4202C119.952 84.6753 118.062 87.8995 117.629 86.2329C117.558 85.2259 117.482 84.4786 117.398 83.8805C117.443 81.1782 117.631 78.4799 117.962 75.7991C118.263 73.4527 117.69 73.6331 117.491 73.9438C116.877 75.1485 116.409 76.4351 116.1 77.7707C115.993 77.4255 115.869 77.0736 115.746 76.7196C113.641 71.1279 114.194 77.2357 114.161 77.3378C115.151 85.8782 113.973 91.1797 112.818 94.2253C114.89 95.5906 117.302 96.2164 119.723 96.017C119.723 96.017 120.414 88.4648 121.673 85.1102Z" fill="#FFD0C6"/>
<path d="M89.2222 93.921C88.4214 88.8489 85.0623 89.0771 83.4632 93.3041C83.2945 93.828 83.0111 93.7858 82.4141 93.0586C81.1557 91.5579 79.5366 94.1879 81.5902 95.5548C81.3139 98.7251 81.6891 98.0355 80.8379 105.329L84.825 106.039L82.523 102.248C88.5532 107.863 90.0321 98.9094 89.2222 93.921Z" fill="#FFD0C6"/>
<path d="M121.087 107.619C120.822 107.889 119.708 108.968 118.57 110.102C117.407 107.508 118.652 106.391 121.087 107.619Z" fill="#915ED1"/>
<path d="M126.005 112.707L123.911 115.592C124.821 116.003 126.069 116.23 126.443 115.245C126.53 114.81 126.536 114.361 126.461 113.925C126.386 113.489 126.231 113.074 126.005 112.707Z" fill="#915ED1"/>
<path d="M120.155 92.5252C119.97 94.0225 119.829 95.3191 119.755 96.0312C120.675 95.8794 121.34 95.522 121.513 94.9347C121.747 94.1731 121.224 93.3227 120.155 92.5252Z" fill="#915ED1"/>
<path d="M112.842 94.2144C110.228 92.3739 110.746 90.4584 113.865 90.4223C113.604 91.71 113.262 92.977 112.842 94.2144Z" fill="#915ED1"/>
<path d="M185.672 182.109C185.826 181.383 183.372 178.863 180.442 176.162C177.698 173.619 173.022 168.535 170.322 165.487C168.623 168.454 166.373 170.998 163.721 172.953C165.859 175.288 167.81 177.835 169.265 178.539C170.236 178.98 171.277 179.212 172.33 179.223C176.766 179.34 185.094 184.698 185.672 182.109Z" fill="#915ED1"/>
<path d="M198.739 84.4488C198.129 84.1304 195.339 86.2726 192.29 88.8612C189.618 91.1353 183.633 95.3971 179.646 98.1302C181.476 100.733 182.832 103.701 183.638 106.873C186.588 104.596 190.816 103.086 191.976 101.327C192.576 100.371 193.007 99.3009 193.249 98.1737C194.338 93.4496 200.929 85.5846 198.739 84.4488Z" fill="#915ED1"/>
<path d="M97.1305 97.3341C97.7472 97.16 98.2947 96.7648 98.6856 96.2116C99.0765 95.6585 99.2883 94.9792 99.2873 94.2822C99.2864 93.5853 99.0726 92.9107 98.6801 92.3661C98.2876 91.8216 97.739 91.4386 97.1218 91.2779C97.624 90.8687 97.9902 90.2904 98.164 89.6325C98.3378 88.9748 98.3091 88.2743 98.0826 87.6399C97.8561 87.0054 97.4444 86.4725 96.9114 86.1237C96.3784 85.7751 95.7538 85.6299 95.1345 85.7111C96.9366 83.1631 94.0448 79.5084 91.3219 81.3255C91.5365 80.6076 91.5157 79.8321 91.263 79.1338C91.0103 78.4354 90.5418 77.8581 89.9387 77.5027C89.3356 77.147 88.6363 77.0355 87.9621 77.1874C87.288 77.3393 86.6817 77.7451 86.2486 78.3342C86.1778 74.9027 81.7922 74.165 80.7932 77.2664C80.5186 76.6531 80.0657 76.1586 79.5052 75.8601C78.9448 75.5616 78.3084 75.476 77.6956 75.6166C77.0828 75.7573 76.5278 76.1162 76.1177 76.6374C75.7075 77.1586 75.4653 77.8127 75.4286 78.4974C74.9698 78.0219 74.3775 77.7302 73.7464 77.6688C73.1154 77.6074 72.482 77.7799 71.9476 78.1587C71.413 78.5376 71.0081 79.1009 70.7976 79.7588C70.5871 80.4166 70.5831 81.131 70.7862 81.7878C70.1842 81.47 69.4973 81.3973 68.8472 81.5827C68.1972 81.7682 67.6262 82.1999 67.2356 82.8009C66.8449 83.4021 66.6601 84.1337 66.7137 84.866C66.7673 85.5983 67.0561 86.2839 67.5285 86.801C66.8736 86.6583 66.1917 86.7751 65.604 87.131C65.0163 87.4868 64.5609 88.0586 64.3185 88.7446C64.0762 89.4306 64.0626 90.1866 64.2802 90.8783C64.4979 91.57 64.9327 92.1526 65.5073 92.5227C62.5613 93.3441 62.7999 98.0367 65.5462 98.5467C65.0463 98.962 64.6834 99.5449 64.5136 100.206C64.3437 100.866 64.3763 101.568 64.6063 102.203C64.8364 102.837 65.251 103.37 65.7865 103.717C66.3218 104.065 66.9482 104.209 67.5687 104.127C65.751 106.698 68.7608 110.339 71.3939 108.474C71.1729 109.171 71.1843 109.93 71.4261 110.615C71.668 111.3 72.1245 111.866 72.7142 112.213C73.3039 112.559 73.9887 112.664 74.646 112.508C75.3035 112.351 75.8908 111.944 76.3033 111.359C76.3056 111.863 76.4202 112.357 76.6369 112.799C76.8537 113.241 77.1661 113.617 77.547 113.895C77.9279 114.172 78.3658 114.343 78.8223 114.392C79.2789 114.441 79.7404 114.366 80.1666 114.175C80.2304 110.995 80.4666 107.82 80.8738 104.667C81.7613 96.2393 81.238 99.2449 81.563 95.5223C79.5094 94.1555 81.1285 91.5255 82.3869 93.0261C82.9858 93.7541 83.2673 93.7955 83.436 93.2717C85.0351 89.0446 88.3944 88.8165 89.1951 93.8886C89.8196 97.8487 89.0109 104.292 85.6493 103.974C85.2961 103.951 84.9485 103.871 84.6178 103.736C84.3287 104.633 85.2283 108.134 85.421 108.739C86.5428 108.949 87.6157 109.393 88.5822 110.047L91.4915 110.17C91.6885 109.862 91.8159 109.507 91.8632 109.135C91.9106 108.763 91.8765 108.384 91.7639 108.031C92.3632 108.352 93.0484 108.428 93.6979 108.246C94.3474 108.064 94.9191 107.637 95.3116 107.039C95.704 106.441 95.8917 105.712 95.8413 104.981C95.7911 104.25 95.5059 103.564 95.0366 103.045C95.6901 103.191 96.3714 103.08 96.961 102.73C97.5507 102.38 98.0108 101.815 98.2607 101.133C98.5106 100.451 98.5344 99.6969 98.3277 99.0022C98.121 98.3075 97.6972 97.7168 97.1305 97.3341Z" fill="#915ED1"/>
<path d="M84.6822 103.782C83.9148 103.417 83.2062 102.921 82.583 102.311L84.8168 105.945C84.6409 105.242 84.5951 104.507 84.6822 103.782Z" fill="#915ED1"/>
<path d="M108.512 143.848C108.431 144.1 108.262 144.307 108.042 144.424C107.823 144.541 107.571 144.558 107.342 144.471C107.112 144.384 106.925 144.2 106.82 143.96C106.715 143.721 106.702 143.444 106.784 143.192C106.865 142.94 107.034 142.732 107.253 142.616C107.473 142.499 107.725 142.482 107.954 142.569C108.183 142.656 108.371 142.84 108.475 143.08C108.58 143.319 108.593 143.596 108.512 143.848Z" fill="#915ED1"/>
<path d="M124.787 138.242C124.705 138.494 124.537 138.701 124.317 138.818C124.098 138.935 123.845 138.952 123.616 138.865C123.387 138.778 123.199 138.594 123.095 138.355C122.99 138.115 122.977 137.838 123.058 137.586C123.139 137.334 123.308 137.127 123.528 137.01C123.747 136.893 123.999 136.876 124.229 136.963C124.458 137.05 124.646 137.234 124.75 137.473C124.855 137.713 124.868 137.99 124.787 138.242Z" fill="#915ED1"/>
<path d="M138.253 150.078C138.172 150.33 138.003 150.538 137.783 150.654C137.564 150.771 137.312 150.788 137.083 150.701C136.853 150.614 136.666 150.43 136.562 150.19C136.456 149.951 136.443 149.675 136.525 149.422C136.606 149.17 136.775 148.963 136.994 148.847C137.214 148.729 137.466 148.713 137.695 148.799C137.924 148.886 138.112 149.07 138.216 149.31C138.321 149.549 138.334 149.826 138.253 150.078Z" fill="#915ED1"/>
<path d="M156.228 151.235C156.147 151.487 155.978 151.695 155.758 151.811C155.539 151.928 155.287 151.945 155.058 151.858C154.829 151.771 154.641 151.588 154.537 151.348C154.432 151.108 154.419 150.832 154.5 150.58C154.581 150.328 154.75 150.12 154.97 150.004C155.189 149.887 155.441 149.87 155.67 149.957C155.9 150.044 156.087 150.227 156.191 150.467C156.296 150.707 156.31 150.983 156.228 151.235Z" fill="#915ED1"/>
<path d="M160.842 168.619C160.761 168.871 160.592 169.078 160.372 169.194C160.153 169.312 159.901 169.328 159.672 169.242C159.442 169.155 159.255 168.971 159.151 168.731C159.046 168.492 159.032 168.215 159.114 167.963C159.195 167.711 159.364 167.503 159.584 167.387C159.803 167.27 160.055 167.253 160.284 167.34C160.514 167.427 160.701 167.611 160.805 167.851C160.91 168.09 160.923 168.366 160.842 168.619Z" fill="#915ED1"/>
<path d="M124.249 127.5C124.167 127.752 123.999 127.959 123.779 128.076C123.56 128.193 123.307 128.209 123.078 128.122C122.849 128.036 122.661 127.852 122.557 127.612C122.452 127.372 122.439 127.096 122.52 126.844C122.601 126.592 122.77 126.385 122.99 126.268C123.209 126.151 123.461 126.134 123.691 126.221C123.92 126.308 124.108 126.492 124.212 126.731C124.317 126.971 124.33 127.247 124.249 127.5Z" fill="#915ED1"/>
<path d="M141.246 129.418C141.165 129.671 140.996 129.878 140.776 129.995C140.557 130.112 140.305 130.128 140.076 130.041C139.847 129.954 139.659 129.771 139.555 129.531C139.45 129.291 139.437 129.015 139.518 128.763C139.599 128.511 139.768 128.303 139.988 128.187C140.207 128.07 140.459 128.053 140.688 128.14C140.918 128.227 141.105 128.41 141.209 128.65C141.314 128.89 141.328 129.166 141.246 129.418Z" fill="#915ED1"/>
<path d="M149.553 114.999C149.472 115.251 149.303 115.458 149.083 115.575C148.864 115.692 148.612 115.708 148.382 115.621C148.153 115.534 147.965 115.351 147.861 115.111C147.756 114.871 147.743 114.595 147.824 114.343C147.906 114.091 148.074 113.883 148.294 113.767C148.513 113.65 148.766 113.633 148.995 113.72C149.224 113.807 149.412 113.991 149.516 114.23C149.621 114.47 149.634 114.746 149.553 114.999Z" fill="#915ED1"/>
<path d="M167.478 116.311C167.397 116.563 167.228 116.771 167.008 116.887C166.789 117.004 166.537 117.021 166.308 116.934C166.078 116.847 165.891 116.663 165.787 116.424C165.682 116.184 165.668 115.908 165.75 115.655C165.831 115.403 166 115.196 166.22 115.079C166.439 114.962 166.691 114.946 166.92 115.033C167.149 115.12 167.337 115.303 167.441 115.543C167.546 115.783 167.559 116.059 167.478 116.311Z" fill="#915ED1"/>
<path d="M176.864 101.26C176.783 101.512 176.614 101.72 176.394 101.836C176.175 101.953 175.923 101.97 175.694 101.883C175.464 101.796 175.276 101.612 175.172 101.373C175.067 101.133 175.054 100.857 175.135 100.605C175.217 100.352 175.386 100.145 175.605 100.028C175.824 99.9114 176.077 99.8946 176.306 99.9816C176.535 100.069 176.723 100.252 176.827 100.492C176.932 100.732 176.945 101.008 176.864 101.26Z" fill="#915ED1"/>
<path d="M104.159 130.265C100.609 129.27 97.1164 128.047 93.7001 126.602L103.177 133.006C103.547 132.111 103.875 131.196 104.159 130.265Z" fill="#915ED1"/>
<path d="M162.633 46.1274L156.164 65.5337L160.451 90.9361L166.92 71.5297L162.633 46.1274Z" fill="#915ED1"/>
<path d="M157.639 76.5007L149.768 80.6569L141.27 101.449L160.165 91.3937L157.639 76.5007Z" fill="#915ED1"/>
<path d="M99.4665 159.947C100.448 156.06 102.143 152.428 104.448 149.274" stroke="#915ED1" stroke-width="0.62625" stroke-linecap="round" stroke-linejoin="round"/>
<path d="M118.056 107.95L121.516 94.9359" stroke="#915ED1" stroke-width="0.62625" stroke-linecap="round" stroke-linejoin="round"/>
<path d="M105.441 113.442L111.187 91.671" stroke="#915ED1" stroke-width="0.62625" stroke-linecap="round" stroke-linejoin="round"/>
<path d="M84.8271 106.036L82.5251 102.245" stroke="#915ED1" stroke-width="0.62625" stroke-linecap="round" stroke-linejoin="round"/>
<path d="M82.525 102.245C88.5534 107.863 90.0301 98.9096 89.2418 93.9282C88.4389 88.8565 85.0819 89.0843 83.4828 93.3114C83.3141 93.8353 83.0339 93.7897 82.4337 93.0658C81.1823 91.5598 79.5562 94.1952 81.6098 95.5621C81.4784 97.0146 81.4919 97.8459 81.444 99.0264C81.3914 100.312 81.0657 103.435 80.9206 104.707C80.2296 110.7 79.7953 115.69 80.7597 120.083C83.3942 132.104 89.7279 138.203 99.1009 141.364C101.087 137.835 102.781 134.12 104.161 130.264C110.916 132.151 113.043 131.208 122.896 119.538C123.885 118.366 124.929 117.108 126.086 115.718" stroke="#915ED1" stroke-width="0.62625" stroke-linecap="round" stroke-linejoin="round"/>
<path d="M85.484 108.789C84.9319 107.194 84.6594 105.497 84.6808 103.786" stroke="#915ED1" stroke-width="0.62625" stroke-linecap="round" stroke-linejoin="round"/>
<path d="M118.058 107.946C115.628 110.943 110.306 117.056 107.115 118.013C103.097 119.218 89.5718 110.662 89.5718 110.662C87.3833 109.222 85.3781 108.135 82.996 109.016" stroke="#915ED1" stroke-width="0.62625" stroke-linecap="round" stroke-linejoin="round"/>
<path d="M88.6339 110.071L106.144 110.769" stroke="#915ED1" stroke-width="0.62625" stroke-linecap="round" stroke-linejoin="round"/>
<path d="M127.972 98.4296C129.624 97.6629 133.375 95.2367 135.469 93.9577C136.433 93.3677 136.027 95.7808 130.231 99.5262" stroke="#915ED1" stroke-width="0.62625" stroke-linecap="round" stroke-linejoin="round"/>
<path d="M128.955 99.9326C130.721 99.4268 133.1 98.4633 135.29 97.6545C136.318 97.2753 136.519 98.8173 130.906 101.565" stroke="#915ED1" stroke-width="0.62625" stroke-linecap="round" stroke-linejoin="round"/>
<path d="M126.005 112.707C126.937 114.665 126.454 115.381 126.084 115.717C124.184 117.121 118.254 111.906 118.133 108.487C118.084 107.105 119.25 106.691 121.088 107.616" stroke="#915ED1" stroke-width="0.62625" stroke-linecap="round" stroke-linejoin="round"/>
<path d="M123.911 115.593L126.008 112.708C127.919 109.971 128.374 109.295 128.499 107.187C128.598 105.526 128.442 104.665 129.487 104.426C135.158 103.133 135.729 101.766 134.699 101.765C132.503 101.764 131.193 101.589 129.769 101.463" stroke="#915ED1" stroke-width="0.62625" stroke-linecap="round" stroke-linejoin="round"/>
<path d="M122.646 103.965C122.749 101.795 122.534 99.6239 122.008 97.5348C121.686 96.3238 122.627 95.614 124.287 99.9233" stroke="#915ED1" stroke-width="0.62625" stroke-linecap="round" stroke-linejoin="round"/>
<path d="M113.864 90.4267C110.755 90.4496 110.196 92.3871 112.84 94.2188C114.903 95.6211 117.325 96.2591 119.754 96.0393C122.098 95.6528 122.077 94.0049 120.155 92.5332" stroke="#915ED1" stroke-width="0.62625" stroke-linecap="round" stroke-linejoin="round"/>
<path d="M117.771 88.3116C117.732 87.5128 117.708 86.8504 117.665 86.2463C117.376 83.0032 116.744 79.8112 115.78 76.7351C114.5 73.3169 113.804 73.9137 114.197 77.2884C114.836 82.8024 114.711 89.0494 112.842 94.2146" stroke="#915ED1" stroke-width="0.62625" stroke-linecap="round" stroke-linejoin="round"/>
<path d="M116.135 77.7841C116.426 76.4422 116.895 75.1528 117.526 73.9571C117.727 73.6413 118.289 73.4854 117.997 75.8124C117.935 76.3111 117.698 78.4642 117.648 79.2323C117.486 80.7814 117.414 82.3394 117.432 83.8969" stroke="#915ED1" stroke-width="0.62625" stroke-linecap="round" stroke-linejoin="round"/>
<path d="M117.665 86.2462C118.104 87.8934 119.984 84.6848 120.926 83.4335C121.783 82.2974 123.143 81.4016 121.708 85.1235C120.699 87.7454 120.076 92.8584 119.757 96.032" stroke="#915ED1" stroke-width="0.62625" stroke-linecap="round" stroke-linejoin="round"/>
<path d="M115.638 132.725L138.074 134.905C140.898 135.174 143.602 136.252 145.914 138.032C155.293 145.132 163.914 153.36 171.62 162.565C169.587 168.261 165.543 171.844 160.916 174.965C153.589 166.695 145.496 159.285 136.765 152.855C136.765 152.855 113.829 154.314 107.133 150.956C100.111 147.435 99.0938 141.309 99.0938 141.309" stroke="#915ED1" stroke-width="0.62625" stroke-linecap="round" stroke-linejoin="round"/>
<path d="M138.917 134.98C154.493 127.787 169.691 119.63 184.436 110.55C183.32 103.938 180.901 98.6662 176.873 95.0092C157.904 106.739 138.156 116.871 117.806 125.317" stroke="#915ED1" stroke-width="0.62625" stroke-linecap="round" stroke-linejoin="round"/>
<path d="M185.672 182.109C185.826 181.384 183.372 178.863 180.442 176.162C177.698 173.619 173.022 168.535 170.322 165.487C168.623 168.454 166.373 170.999 163.721 172.953C165.859 175.288 167.81 177.835 169.265 178.539C170.236 178.98 171.277 179.212 172.33 179.223C176.766 179.34 185.094 184.698 185.672 182.109Z" stroke="#915ED1" stroke-width="0.62625" stroke-linecap="round" stroke-linejoin="round"/>
<path d="M198.739 84.4488C198.129 84.1304 195.338 86.2726 192.29 88.8612C189.618 91.1353 183.633 95.3971 179.645 98.1302C181.476 100.733 182.831 103.701 183.638 106.873C186.588 104.596 190.815 103.086 191.976 101.327C192.576 100.371 193.007 99.3008 193.249 98.1737C194.338 93.4496 200.929 85.5846 198.739 84.4488Z" stroke="#915ED1" stroke-width="0.62625" stroke-linecap="round" stroke-linejoin="round"/>
<path d="M91.5431 110.195C91.7641 109.711 91.8995 109.186 91.9424 108.648C91.922 108.447 91.8809 108.249 91.8202 108.057C92.4196 108.381 93.1064 108.46 93.7577 108.28C94.409 108.099 94.9826 107.671 95.3761 107.072C95.7694 106.472 95.9568 105.741 95.905 105.008C95.8531 104.276 95.5653 103.589 95.0929 103.072C95.7516 103.224 96.4403 103.113 97.0352 102.759C97.63 102.405 98.0921 101.831 98.3384 101.141C98.5848 100.45 98.5993 99.6875 98.3793 98.9903C98.1592 98.2933 97.7191 97.7072 97.138 97.3373C97.6998 97.1821 98.2065 96.8428 98.5902 96.3647C98.9739 95.8868 99.2163 95.2927 99.2849 94.6624C99.3537 94.0322 99.2453 93.3954 98.9745 92.8376C98.7037 92.2798 98.2833 91.8275 97.7695 91.5411C97.5652 91.4257 97.3493 91.3366 97.126 91.2753C97.4797 90.995 97.7681 90.6266 97.9669 90.2008C98.1386 89.837 98.2434 89.4403 98.2756 89.0333C98.3076 88.6264 98.2662 88.2172 98.1537 87.8291C98.0413 87.4411 97.8599 87.0818 97.6202 86.7719C97.3804 86.4619 97.0868 86.2074 96.7562 86.0229C96.2579 85.7421 95.6925 85.6339 95.1343 85.7125C95.2055 85.6042 95.2688 85.4899 95.3236 85.3706C95.6087 84.7644 95.7056 84.074 95.5994 83.4053C95.4931 82.7365 95.1898 82.1263 94.7355 81.668C94.2813 81.2097 93.7014 80.9286 93.0846 80.8677C92.4677 80.8068 91.848 80.9695 91.3203 81.331C91.5522 80.6218 91.5435 79.8467 91.2955 79.1485C91.0476 78.4503 90.5772 77.8761 89.9711 77.5314L89.8072 77.4257C89.2139 77.0962 88.5321 77.0071 87.8811 77.1742C87.2302 77.3413 86.6516 77.7539 86.247 78.3396C86.2363 77.6483 86.0159 76.9824 85.6204 76.4474C85.2248 75.9125 84.6769 75.5389 84.0632 75.3858C83.4494 75.2326 82.805 75.3087 82.2316 75.6019C81.6583 75.8952 81.1887 76.3888 80.8974 77.0049C80.8539 77.0889 80.8187 77.1777 80.7923 77.2698C80.5297 76.6715 80.0958 76.185 79.5562 75.8842C79.2264 75.6982 78.8658 75.5858 78.4951 75.5535C78.1244 75.5213 77.751 75.5698 77.3962 75.6962C77.0413 75.8227 76.7123 76.0246 76.4278 76.2904C76.1434 76.5561 75.9091 76.8804 75.7385 77.2448C75.5551 77.6364 75.452 78.0668 75.4366 78.5054C75.2454 78.3013 75.0269 78.1303 74.7885 77.9983C74.4583 77.8127 74.0975 77.7006 73.7267 77.6685C73.3558 77.6365 72.9822 77.6848 72.6273 77.811C72.2722 77.9373 71.9428 78.1387 71.6578 78.404C71.3727 78.6693 71.1378 78.9931 70.9662 79.3571C70.7915 79.7321 70.6863 80.1409 70.6568 80.5595C70.6272 80.9783 70.6739 81.3985 70.7942 81.7958C70.1921 81.4743 69.5036 81.3992 68.8517 81.5835C68.1997 81.768 67.6269 82.2 67.2353 82.8025C66.8439 83.405 66.6591 84.1388 66.7143 84.8727C66.7695 85.6066 67.061 86.2929 67.5366 86.8089C66.8802 86.6611 66.1951 86.775 65.6044 87.13C65.0135 87.4851 64.5556 88.0582 64.3123 88.7467C64.0691 89.4351 64.0566 90.1941 64.2771 90.8873C64.4975 91.5807 64.9365 92.1633 65.5154 92.5306C65.1257 92.6391 64.7613 92.8382 64.4468 93.1145C64.1324 93.3907 63.8755 93.7376 63.6934 94.1314C63.3508 94.8642 63.2847 95.7133 63.5094 96.494C63.7341 97.2747 64.2315 97.9239 64.8933 98.3006C65.0963 98.4202 65.3157 98.5034 65.5431 98.5471C65.2006 98.8379 64.9195 99.2069 64.7198 99.6283C64.4825 100.132 64.3742 100.696 64.4065 101.26C64.4389 101.824 64.6108 102.366 64.9036 102.829C65.1964 103.291 65.5993 103.657 66.0688 103.885C66.5383 104.114 67.0569 104.198 67.5688 104.127C67.4998 104.229 67.4385 104.337 67.3858 104.45C67.2119 104.813 67.1053 105.21 67.0718 105.618C67.0385 106.025 67.079 106.435 67.1913 106.824C67.3034 107.213 67.485 107.573 67.7255 107.883C67.9661 108.193 68.2607 108.447 68.5923 108.631C69.028 108.879 69.517 108.995 70.0092 108.968C70.5015 108.94 70.9794 108.77 71.394 108.474C71.168 109.173 71.1761 109.935 71.4167 110.623C71.6574 111.311 72.1149 111.88 72.7068 112.228C73.2987 112.576 73.9862 112.68 74.6455 112.521C75.3049 112.361 75.8928 111.95 76.3034 111.36C76.3057 111.863 76.4202 112.357 76.6369 112.799C76.8537 113.241 77.1661 113.617 77.5471 113.895C77.928 114.173 78.3658 114.343 78.8224 114.392C79.279 114.441 79.7405 114.366 80.1666 114.175" stroke="#915ED1" stroke-width="0.62625" stroke-linecap="round" stroke-linejoin="round"/>
<path d="M80.8565 105.336L84.827 106.036" stroke="#915ED1" stroke-width="0.62625" stroke-linecap="round" stroke-linejoin="round"/>
<path d="M153.826 232.061C152.651 231.053 151.688 229.782 150.998 228.33C150.31 226.878 149.911 225.281 149.828 223.642L149.476 216.933L159.308 216.395L159.444 218.798C159.579 221.413 160.626 223.861 162.368 225.637L170.463 233.933C170.573 234.042 170.662 234.176 170.725 234.325C170.788 234.473 170.821 234.635 170.826 234.798C170.83 234.963 170.804 235.126 170.751 235.28C170.696 235.433 170.614 235.574 170.509 235.692C169.05 237.383 167.072 238.42 164.964 238.599C162.856 238.778 160.769 238.087 159.114 236.661L153.826 232.061Z" stroke="#915ED1" stroke-width="0.62625" stroke-linecap="round" stroke-linejoin="round"/>
<path d="M149.476 216.933L159.308 216.395L158.856 208.211C158.841 207.984 158.746 207.773 158.593 207.622C158.439 207.469 158.237 207.39 158.03 207.397L149.814 207.833C149.709 207.84 149.605 207.869 149.511 207.919C149.415 207.97 149.33 208.041 149.26 208.128C149.19 208.215 149.136 208.316 149.101 208.425C149.067 208.535 149.051 208.65 149.058 208.765L149.476 216.933Z" stroke="#915ED1" stroke-width="0.62625" stroke-linecap="round" stroke-linejoin="round"/>
<path d="M115.013 111.499C115.696 113.4 116.759 115.107 118.123 116.495C119.487 117.883 121.119 118.918 122.899 119.523" stroke="#915ED1" stroke-width="0.62625" stroke-linecap="round" stroke-linejoin="round"/>
<path d="M110.041 96.0264C111.42 97.3788 113.051 98.3869 114.823 98.9822C116.595 99.5774 118.466 99.7456 120.309 99.4755" stroke="#915ED1" stroke-width="0.62625" stroke-linecap="round" stroke-linejoin="round"/>
<path d="M42.5338 142.706L108.399 215.417" stroke="#915ED1" stroke-width="0.62625" stroke-linecap="round" stroke-linejoin="round"/>
<path d="M124.236 223.21C125.048 222.324 125.508 221.126 125.517 219.876C125.526 218.627 125.083 217.428 124.285 216.544L118.878 210.596C118.078 209.714 116.989 209.22 115.849 209.219C114.71 209.221 113.614 209.717 112.801 210.599L96.9716 227.848C96.1604 228.734 95.7004 229.932 95.6905 231.182C95.6819 232.431 96.1251 233.629 96.9225 234.514L102.324 240.482C103.124 241.364 104.213 241.859 105.352 241.859C106.491 241.858 107.588 241.361 108.401 240.479L124.236 223.21Z" stroke="#915ED1" stroke-width="0.62625" stroke-linecap="round" stroke-linejoin="round"/>
<path d="M44.2848 128.238L48.9458 123.169C51.2368 120.674 54.33 119.268 57.5456 119.263C60.7609 119.259 63.836 120.653 66.0951 123.142L126.372 189.667C128.627 192.16 129.883 195.539 129.86 199.067C129.836 202.594 128.539 205.978 126.251 208.477L121.583 213.565" stroke="#915ED1" stroke-width="0.62625" stroke-linecap="round" stroke-linejoin="round"/>
<path d="M25.0239 155.159L96.9406 234.52" stroke="#915ED1" stroke-width="0.62625" stroke-linecap="round" stroke-linejoin="round"/>
<path d="M186.898 126.748L185.109 137.217" stroke="#915ED1" stroke-width="0.62625" stroke-linecap="round" stroke-linejoin="round"/>
<path d="M190.769 132.919L181.238 131.046" stroke="#915ED1" stroke-width="0.62625" stroke-linecap="round" stroke-linejoin="round"/>
<path d="M92.998 51.1755C92.5907 52.4376 91.8523 53.5419 90.8763 54.3492C89.9002 55.1563 88.7304 55.63 87.5146 55.7102C86.2987 55.7905 85.0916 55.4738 84.0456 54.8001C82.9997 54.1265 82.162 53.1262 81.6385 51.9256C81.115 50.7249 80.929 49.378 81.1042 48.055C81.2795 46.7322 81.808 45.4925 82.6229 44.493C83.4379 43.4934 84.5027 42.7789 85.6828 42.4396C86.8628 42.1003 88.1051 42.1515 89.2527 42.5868C90.0156 42.8752 90.7179 43.3263 91.3192 43.9143C91.9206 44.5023 92.4092 45.2157 92.7571 46.0135C93.1051 46.8114 93.3054 47.678 93.3468 48.5638C93.3881 49.4496 93.2697 50.3371 92.998 51.1755Z" stroke="#915ED1" stroke-width="0.62625" stroke-linecap="round" stroke-linejoin="round"/>
<path d="M89.6344 37.6632C89.9301 39.3073 89.7979 41.0135 89.2526 42.5869C88.1394 41.4538 87.3396 39.9994 86.9435 38.3877C86.6465 36.7421 86.7782 35.0341 87.3238 33.4589C88.4383 34.5931 89.2387 36.0495 89.6344 37.6632Z" stroke="#915ED1" stroke-width="0.62625" stroke-linecap="round" stroke-linejoin="round"/>
<path d="M103.164 132.998L93.7065 126.583" stroke="#915ED1" stroke-width="0.62625" stroke-linecap="round" stroke-linejoin="round"/>
<path d="M104.159 130.265C97.7534 128.52 91.5676 125.94 85.7332 122.579" stroke="#915ED1" stroke-width="0.62625" stroke-linecap="round" stroke-linejoin="round"/>
<path d="M43.2569 95.6671L42.8626 98.3044" stroke="#915ED1" stroke-width="0.62625" stroke-linecap="round" stroke-linejoin="round"/>
<path d="M40.2113 100.391L37.8099 99.9805" stroke="#915ED1" stroke-width="0.62625" stroke-linecap="round" stroke-linejoin="round"/>
<path d="M47.1372 101.624L44.7421 101.195" stroke="#915ED1" stroke-width="0.62625" stroke-linecap="round" stroke-linejoin="round"/>
<path d="M41.6788 105.912L42.0907 103.281" stroke="#915ED1" stroke-width="0.62625" stroke-linecap="round" stroke-linejoin="round"/>
<path d="M44.742 101.195C44.444 101.143 44.1587 101.027 43.9026 100.853C43.6465 100.68 43.4247 100.452 43.2499 100.183C43.075 99.9148 42.9506 99.6104 42.8838 99.2878C42.817 98.9652 42.8091 98.6308 42.8605 98.3038C42.8107 98.6311 42.7026 98.945 42.5421 99.2273C42.3817 99.5097 42.1723 99.7549 41.9258 99.949C41.6794 100.143 41.4008 100.282 41.1061 100.358C40.8114 100.434 40.5064 100.446 40.2086 100.392C40.5067 100.444 40.792 100.56 41.048 100.733C41.3041 100.907 41.526 101.135 41.7008 101.403C41.8756 101.672 42 101.976 42.0668 102.299C42.1336 102.621 42.1415 102.956 42.0901 103.283C42.1399 102.956 42.2481 102.642 42.4085 102.359C42.5689 102.077 42.7783 101.832 43.0248 101.638C43.2713 101.444 43.5498 101.305 43.8446 101.229C44.1393 101.153 44.4443 101.141 44.742 101.195Z" stroke="#915ED1" stroke-width="0.62625" stroke-linecap="round" stroke-linejoin="round"/>
<path d="M158.036 171.8C157.271 179.577 153.992 186.82 148.793 192.215C143.595 197.609 136.822 200.797 129.702 201.202" stroke="#915ED1" stroke-width="0.62625" stroke-linecap="round" stroke-linejoin="round"/>
<path d="M118.57 110.105C119.708 108.968 121.068 107.634 121.068 107.634C121.737 106.908 123.876 99.9439 124.961 98.6822C125.244 98.354 129.417 95.674 131.402 94.3542C133.091 93.2336 134.24 93.471 129.626 97.5341" stroke="#915ED1" stroke-width="0.62625" stroke-linecap="round" stroke-linejoin="round"/>
<path d="M46.9334 137.886C47.7442 137.001 48.2046 135.803 48.214 134.553C48.2231 133.304 47.7801 132.105 46.9824 131.221L41.5925 125.28C40.7923 124.398 39.7032 123.903 38.5642 123.903C37.4248 123.904 36.3282 124.4 35.5152 125.282L19.6687 142.525C18.8578 143.41 18.3975 144.609 18.388 145.859C18.3789 147.108 18.8219 148.306 19.6196 149.191L25.0206 155.159C25.8208 156.041 26.9099 156.535 28.0489 156.536C29.1883 156.535 30.2848 156.038 31.0979 155.156L46.9334 137.886Z" stroke="#915ED1" stroke-width="0.62625" stroke-linecap="round" stroke-linejoin="round"/>
</svg>
