<svg width="24" height="24" viewBox="0 0 24 24" fill="none" xmlns="http://www.w3.org/2000/svg">
<path fill-rule="evenodd" clip-rule="evenodd" d="M12.5114 14.0662C10.9846 14.0662 9.74625 12.8285 9.74625 11.3011C9.74625 10.5272 10.0631 9.82952 10.5754 9.3269C10.7656 9.14029 10.7686 8.8348 10.5819 8.64458C10.3953 8.45436 10.0898 8.45144 9.89962 8.63805C9.21012 9.31447 8.78126 10.2573 8.78126 11.3011C8.78126 13.3616 10.4519 15.0312 12.5114 15.0312C13.5542 15.0312 14.4979 14.6024 15.1744 13.9128C15.361 13.7226 15.3581 13.4171 15.1679 13.2305C14.9776 13.0439 14.6721 13.0468 14.4855 13.237C13.983 13.7493 13.2845 14.0662 12.5114 14.0662Z" fill="#677185"/>
<path fill-rule="evenodd" clip-rule="evenodd" d="M4.86106 15.2957C6.41179 17.2 8.87396 19.1561 12.4277 19.1561C14.8379 19.1561 16.7563 18.2539 18.2278 17.0767C18.4336 16.912 18.466 16.6129 18.3001 16.4086C18.1342 16.2042 17.8328 16.1721 17.627 16.3368C16.2907 17.4059 14.5781 18.2057 12.4277 18.2057C9.2702 18.2057 7.05473 16.4778 5.60561 14.6983C4.8821 13.8098 4.35925 12.9189 4.01735 12.2494C3.84669 11.9152 3.72189 11.6377 3.64032 11.4453C3.62002 11.3975 3.60242 11.3549 3.58746 11.318C3.62398 11.2327 3.67536 11.1165 3.74189 10.9748C3.89466 10.6495 4.12671 10.1914 4.44144 9.66587C5.07297 8.6114 6.02692 7.30334 7.32584 6.24924C7.53052 6.08314 7.5608 5.78378 7.39347 5.5806C7.22614 5.37743 6.92457 5.34737 6.71989 5.51347C5.30509 6.6616 4.2838 8.06938 3.61852 9.18021C3.28484 9.73735 3.0381 10.2242 2.87417 10.5733C2.79216 10.7479 2.73072 10.8884 2.68938 10.9862C2.6687 11.0352 2.65303 11.0735 2.64232 11.1002C2.63696 11.1135 2.63284 11.124 2.62994 11.1313L2.62652 11.1401L2.6255 11.1427L2.62516 11.1436L2.62504 11.1439C2.62499 11.1441 2.62494 11.1442 3.07239 11.3131C2.62146 11.4725 2.62153 11.4727 2.62161 11.4729L2.62183 11.4736L2.62245 11.4753L2.62443 11.4807C2.62608 11.4852 2.62838 11.4914 2.63135 11.4994C2.63729 11.5153 2.6459 11.538 2.6572 11.5671C2.67981 11.6251 2.71326 11.7087 2.7579 11.8139C2.84714 12.0245 2.98134 12.3226 3.16343 12.6791C3.52702 13.3911 4.08464 14.3422 4.86106 15.2957ZM3.07239 11.3131L2.62146 11.4725C2.58328 11.3661 2.58452 11.2498 2.62494 11.1442L3.07239 11.3131Z" fill="#677185"/>
<path fill-rule="evenodd" clip-rule="evenodd" d="M18.8433 15.5988C19.0386 15.7718 19.3387 15.7554 19.5136 15.5622C20.4319 14.5476 21.0907 13.4911 21.5197 12.6905C21.7347 12.2894 21.893 11.9504 21.9982 11.7102C22.0508 11.5901 22.0902 11.4944 22.1167 11.4279C22.13 11.3946 22.1401 11.3686 22.1471 11.3504C22.1506 11.3413 22.1533 11.3342 22.1552 11.3291L22.1575 11.3229L22.1582 11.321L22.1584 11.3203L22.1585 11.3201C22.1586 11.32 22.1586 11.3199 21.7123 11.1598C22.1561 10.9931 22.156 10.9929 22.1559 10.9927L22.155 10.9904L22.153 10.9851C22.1512 10.9807 22.1488 10.9745 22.1457 10.9667C22.1394 10.9509 22.1303 10.9284 22.1184 10.8996C22.0946 10.8419 22.0594 10.759 22.0126 10.6543C21.919 10.445 21.779 10.1484 21.5906 9.79358C21.2144 9.08509 20.6426 8.13855 19.8598 7.18966C18.299 5.29755 15.8526 3.34368 12.4127 3.34368C10.8612 3.34368 9.50667 3.74306 8.34454 4.35708C8.11327 4.47928 8.02593 4.76379 8.14945 4.99257C8.27297 5.22134 8.56059 5.30775 8.79186 5.18555C9.83076 4.63663 11.0328 4.28291 12.4127 4.28291C15.4516 4.28291 17.6549 6.00231 19.1242 7.78348C19.8565 8.67123 20.3948 9.56133 20.75 10.2303C20.9273 10.5643 21.0582 10.8416 21.1442 11.0341C21.166 11.0828 21.1849 11.126 21.2009 11.1634C21.1809 11.2116 21.1563 11.2698 21.1269 11.3369C21.0303 11.5576 20.8826 11.874 20.6808 12.2506C20.2765 13.0052 19.6592 13.9933 18.8062 14.9357C18.6313 15.1289 18.6479 15.4258 18.8433 15.5988ZM21.7123 11.1598L22.1561 10.9931C22.1964 11.0982 22.1973 11.2142 22.1586 11.3199L21.7123 11.1598Z" fill="#677185"/>
<path fill-rule="evenodd" clip-rule="evenodd" d="M15.4279 12.2742C15.6748 12.319 15.9086 12.1398 15.9501 11.874C15.982 11.6701 16.0001 11.4593 16.0001 11.2419C16.0001 9.15855 14.4318 7.46863 12.4963 7.46863C12.2944 7.46863 12.0987 7.48813 11.9094 7.52244C11.6626 7.56718 11.4962 7.81893 11.5377 8.08475C11.5792 8.35056 11.813 8.52978 12.0598 8.48504C12.2035 8.459 12.3489 8.44478 12.4963 8.44478C13.9311 8.44478 15.0936 9.69749 15.0936 11.2419C15.0936 11.4007 15.0804 11.5572 15.0563 11.7119C15.0147 11.9778 15.1811 12.2295 15.4279 12.2742Z" fill="#677185"/>
<path fill-rule="evenodd" clip-rule="evenodd" d="M8.78126 11.3011C8.78126 13.3615 10.4509 15.0312 12.5114 15.0312C13.5552 15.0312 14.498 14.6023 15.1744 13.9128C15.361 13.7226 15.3581 13.4171 15.1679 13.2305C14.9776 13.0439 14.6721 13.0468 14.4855 13.237C13.9829 13.7494 13.2853 14.0662 12.5114 14.0662C10.9838 14.0662 9.74625 12.8286 9.74625 11.3011C9.74625 10.528 10.0631 9.82946 10.5754 9.3269C10.7656 9.14029 10.7685 8.8348 10.5819 8.64458C10.3953 8.45436 10.0898 8.45144 9.89962 8.63805C9.21006 9.31452 8.78126 10.2582 8.78126 11.3011Z" fill="#677185"/>
<path fill-rule="evenodd" clip-rule="evenodd" d="M20.6747 19.3624C20.8582 19.1789 20.8582 18.8814 20.6747 18.6979L5.11459 3.13776C4.93108 2.95426 4.63357 2.95426 4.45006 3.13776C4.26656 3.32126 4.26656 3.61878 4.45006 3.80228L20.0102 19.3624C20.1937 19.5459 20.4912 19.5459 20.6747 19.3624Z" fill="#677185"/>
</svg>
