<svg width="29" height="29" viewBox="0 0 29 29" fill="none" xmlns="http://www.w3.org/2000/svg">
<path d="M7.4988 26.3058C9.55796 27.5413 12.029 28.2277 14.5 28.2277C22.0502 28.2277 28.2277 22.0502 28.2277 14.5C28.2277 6.94968 22.0502 0.772187 14.5 0.772187C6.94968 0.772187 0.772187 6.94968 0.772187 14.5C0.772187 16.971 1.45858 19.3047 2.5568 21.3638L1.22566 26.4836C1.02518 27.2547 1.73889 27.9515 2.50496 27.7327L7.4988 26.3058Z" stroke="white" stroke-width="1.5" stroke-miterlimit="10" stroke-linecap="round" stroke-linejoin="round"/>
<path d="M20.6774 18.4103C20.6774 18.6327 20.6279 18.8613 20.5227 19.0837C20.4175 19.3061 20.2814 19.5161 20.102 19.7138C19.7988 20.0474 19.4648 20.2883 19.0874 20.4427C18.7162 20.5972 18.314 20.6775 17.8809 20.6775C17.2499 20.6775 16.5755 20.5292 15.8641 20.2265C15.1526 19.9238 14.4411 19.5161 13.7358 19.0034C13.0243 18.4844 12.35 17.9099 11.7065 17.2737C11.0693 16.6312 10.4939 15.9579 9.98043 15.2536C9.47312 14.5494 9.06479 13.8451 8.76783 13.1471C8.47086 12.4429 8.32238 11.7695 8.32238 11.127C8.32238 10.707 8.39662 10.3054 8.5451 9.93479C8.69358 9.55796 8.92868 9.21202 9.25658 8.90315C9.65253 8.51397 10.0856 8.32246 10.5434 8.32246C10.7167 8.32246 10.8899 8.35953 11.0446 8.43366C11.2054 8.50779 11.3477 8.61898 11.4591 8.7796L12.8944 10.7996C13.0058 10.9541 13.0862 11.0962 13.1419 11.2321C13.1976 11.3618 13.2285 11.4915 13.2285 11.6089C13.2285 11.7572 13.1852 11.9054 13.0986 12.0475C13.0181 12.1896 12.9006 12.3378 12.7521 12.4861L12.2819 12.9741C12.2139 13.0421 12.1829 13.1224 12.1829 13.2212C12.1829 13.2706 12.1891 13.3139 12.2015 13.3633C12.22 13.4127 12.2386 13.4498 12.251 13.4869C12.3623 13.6907 12.5541 13.9563 12.8264 14.2776C13.1048 14.5988 13.4017 14.9262 13.7234 15.2536C14.0575 15.581 14.3792 15.8837 14.7071 16.1617C15.0288 16.4335 15.2949 16.6188 15.5052 16.73C15.5362 16.7424 15.5733 16.7609 15.6166 16.7795C15.6661 16.798 15.7156 16.8042 15.7713 16.8042C15.8764 16.8042 15.9569 16.7671 16.0249 16.6992L16.4951 16.2358C16.6498 16.0814 16.7983 15.964 16.9406 15.8899C17.0829 15.8034 17.2251 15.7602 17.3798 15.7602C17.4974 15.7602 17.6211 15.7849 17.7572 15.8405C17.8933 15.8961 18.0356 15.9764 18.1903 16.0814L20.2381 17.5331C20.399 17.6443 20.5103 17.774 20.5784 17.9285C20.6403 18.0829 20.6774 18.2373 20.6774 18.4103Z" stroke="white" stroke-width="1.5" stroke-miterlimit="10"/>
</svg>
