<svg width="27" height="30" viewBox="0 0 27 30" fill="none" xmlns="http://www.w3.org/2000/svg">
<path fill-rule="evenodd" clip-rule="evenodd" d="M26.9999 15.2879C26.9999 14.2279 26.9123 13.2087 26.7495 12.2303H13.7755V18.0125H21.1892C20.8698 19.881 19.8993 21.4642 18.4403 22.5241V26.2748H22.8923C25.4972 23.6724 26.9999 19.8403 26.9999 15.2879Z" fill="#4285F4"/>
<path fill-rule="evenodd" clip-rule="evenodd" d="M13.7756 29.8962C17.495 29.8962 20.6133 28.5577 22.8925 26.2747L18.4405 22.5241C17.207 23.421 15.629 23.9509 13.7756 23.9509C10.1877 23.9509 7.15083 21.3214 6.06758 17.7882H1.46531V21.6612C3.732 26.5465 8.39063 29.8962 13.7756 29.8962Z" fill="#34A853"/>
<path fill-rule="evenodd" clip-rule="evenodd" d="M6.06748 17.7883C5.79197 16.8914 5.63543 15.9333 5.63543 14.9481C5.63543 13.9629 5.79197 13.0049 6.06748 12.108V8.23505H1.46521C0.532235 10.253 0 12.536 0 14.9481C0 17.3602 0.532235 19.6432 1.46521 21.6612L6.06748 17.7883Z" fill="#FBBC05"/>
<path fill-rule="evenodd" clip-rule="evenodd" d="M13.7756 5.94528C15.7981 5.94528 17.614 6.69948 19.0416 8.18071L22.9927 3.89331C20.607 1.48122 17.4887 0 13.7756 0C8.39063 0 3.732 3.34974 1.46531 8.23506L6.06758 12.108C7.15083 8.57479 10.1877 5.94528 13.7756 5.94528Z" fill="#EA4335"/>
</svg>
