<svg width="23" height="30" viewBox="0 0 23 30" fill="none" xmlns="http://www.w3.org/2000/svg">
<path d="M11.6919 6.92307C12.9516 6.92307 14.5307 6.00762 15.471 4.78703C16.3226 3.68086 16.9436 2.13604 16.9436 0.591227C16.9436 0.381437 16.9258 0.171646 16.8903 0C15.4887 0.0572155 13.8032 1.01081 12.7919 2.28862C11.9936 3.26128 11.2661 4.78703 11.2661 6.35092C11.2661 6.57978 11.3016 6.80864 11.3194 6.88493C11.4081 6.904 11.55 6.92307 11.6919 6.92307ZM7.25646 30C8.97743 30 9.74033 28.7603 11.8871 28.7603C14.0694 28.7603 14.5484 29.9618 16.4645 29.9618C18.3452 29.9618 19.6049 28.0928 20.7936 26.2619C22.1242 24.164 22.6742 22.1042 22.7097 22.0089C22.5855 21.9707 18.9839 20.3878 18.9839 15.944C18.9839 12.0915 21.8226 10.356 21.9823 10.2225C20.1016 7.32358 17.2452 7.24729 16.4645 7.24729C14.3532 7.24729 12.6323 8.62047 11.55 8.62047C10.379 8.62047 8.83549 7.32358 7.00807 7.32358C3.53065 7.32358 0 10.4132 0 16.2492C0 19.8728 1.3129 23.7063 2.92742 26.1856C4.31129 28.2835 5.51775 30 7.25646 30Z" fill="#000100"/>
</svg>
