<svg width="136" height="120" viewBox="0 0 136 120" fill="none" xmlns="http://www.w3.org/2000/svg">
<path fill-rule="evenodd" clip-rule="evenodd" d="M134.223 55.2164C132.243 63.8442 128.263 73.2519 120.244 76.0019C118.295 76.6705 116.398 77.1752 114.373 76.9207C114.18 76.8964 114.019 76.9275 113.836 76.9315C113.507 76.9387 113.791 77.0742 113.423 76.9436C113.135 76.8418 112.867 76.5871 112.568 76.4745C111.772 76.1755 110.923 76.1177 110.115 75.8762C108.128 75.2826 106.08 74.5498 104.155 73.7311C103.248 73.3457 102.415 72.8089 101.562 72.2926C100.695 71.7679 99.7765 71.442 98.8999 70.9608C98.2071 70.5803 97.0202 70.0845 96.5332 69.371C96.0138 68.6099 96.7323 66.9898 96.9378 66.1808C97.6362 63.428 98.4679 60.7155 98.9929 57.9078C100.805 60.3201 103.321 61.8139 105.925 62.7774C107.339 63.3002 108.792 63.6782 110.262 63.9147C111.596 64.1293 113.036 64.3892 114.374 64.0844C115.383 63.8543 116.651 63.3212 117.372 62.4362C117.629 62.1202 117.938 61.541 117.794 61.0821C117.611 60.4994 117.078 60.7737 116.789 60.3388C116.538 59.9601 116.577 59.0743 116.497 58.6131C116.355 57.7969 116.16 57.0031 115.923 56.2174C115.461 54.6919 114.886 53.1629 114.749 51.5396C114.629 50.1312 114.908 48.7995 115.52 47.5774C115.809 46.9997 116.535 45.4281 117.244 45.4933C118.022 45.5649 116.972 49.331 116.938 50.0992C116.802 53.1446 117.158 56.3895 118.519 59.0588C119.04 60.0808 119.793 61.2709 120.906 61.3975C122.084 61.5315 123.035 60.4668 123.596 59.3896C124.964 56.7614 124.274 53.1552 123.581 50.4006C122.731 47.0211 120.512 44.6917 119.109 41.6566C121.204 41.8984 122.325 43.4266 123.4 45.3655C124.584 47.5001 125.506 50.063 125.96 52.5467C126.189 53.8015 126.031 55.0617 126.033 56.3288C126.033 56.7498 126.033 58.303 126.631 58.2418C127.269 58.1764 127.488 56.4248 127.582 55.8904C127.798 54.6648 128.031 53.4389 128.218 52.2072C128.549 50.0279 128.696 47.796 129.092 45.6318C129.159 45.266 129.292 44.251 129.769 44.5251C130.137 44.736 130.078 46.3059 130.092 46.6708C130.125 47.57 130.171 48.4691 130.177 49.3692C130.187 50.7033 129.955 52.0842 130.069 53.4101C130.143 54.2766 130.548 55.2338 131.05 54.0654C131.548 52.9067 131.649 51.4615 131.927 50.2154C132.218 48.9071 132.519 47.5795 133.138 46.4175C133.31 46.0951 133.494 45.5833 133.876 45.735C134.153 45.8453 134.357 46.5997 134.443 46.866C134.83 48.0693 134.764 49.4072 134.74 50.6669C134.71 52.2104 134.566 53.7199 134.223 55.2164ZM95.6318 57.4554C95.5262 57.4161 95.0769 57.3672 94.9655 57.356C94.8349 57.343 94.9831 57.0666 94.667 57.1452C94.728 57.3189 94.8363 57.4347 94.9923 57.4929C94.517 57.6775 94.1665 57.2216 93.8415 57.1629C93.5308 57.1068 93.5176 57.1629 93.2106 57.5399C92.8782 57.0744 92.9405 57.3647 92.6672 57.3649C92.5678 57.3651 92.5635 57.5376 92.4016 57.517C92.2603 57.4988 92.2454 57.2527 92.1619 57.2237C91.7083 57.066 91.2417 57.8591 90.7273 57.1712C90.6027 57.887 89.1748 56.9904 88.6252 57.1162C88.0494 57.2478 88.2978 57.4849 87.8324 57.0797C87.3889 56.6935 87.5126 56.95 86.9967 57.266C87.0087 57.2586 86.7055 57.4938 86.7337 57.4976C86.3766 57.4497 86.3969 57.0256 85.9446 57.0482C85.466 57.0721 85.2616 57.5029 84.8235 56.9728C84.7282 57.3699 84.7086 57.1987 84.4841 57.2988C84.3606 57.3325 84.2526 57.2952 84.1599 57.1871C84.1319 57.2963 84.0703 57.3632 83.9748 57.3879C83.7303 57.4131 83.2713 57.4521 83.0492 57.317C82.716 57.114 82.9839 57.0361 82.7528 56.8078C82.6492 57.4372 82.4222 57.3033 81.9434 57.3621C81.5783 57.407 81.4978 57.2783 81.1489 57.2158C80.8054 57.1542 80.3614 57.3073 80.0262 57.3725C79.8879 57.3996 79.7025 57.5103 79.5618 57.4715C79.4348 57.4364 79.3804 57.3232 79.3046 57.2937C79.2126 57.258 79.2322 57.1655 79.0731 57.1208C78.9634 57.0901 78.7671 57.2082 78.6574 57.2287C77.8761 57.3742 77.1256 57.3757 76.3803 57.0228C76.7474 57.7636 75.5223 57.3636 75.3038 57.0569C75.0308 57.548 74.7006 57.2014 74.1503 57.2396C73.6204 57.2766 72.8234 57.4629 72.6086 56.7051C72.5665 56.859 72.2658 57.3062 72.1461 57.3744C71.7987 57.5721 71.7573 57.2796 71.4344 57.1606C70.9948 56.9983 71.0865 57.3062 70.814 57.3687C70.3538 57.4745 70.1052 57.1024 69.6985 56.9047C69.6813 57.2122 69.6724 57.4013 69.4409 57.5928C69.2358 56.7354 68.5042 57.6629 68.6298 56.5171C68.3513 56.7252 67.9596 56.8852 67.8803 57.3062C68.3459 57.1591 67.9299 57.5086 67.9105 57.5202C67.849 57.5571 67.6411 57.222 67.5928 57.1748C67.5796 57.3329 67.5665 57.491 67.5534 57.6491C67.3679 57.5426 67.1938 57.3519 67.0433 57.2563C66.9076 57.1703 67.1019 56.9911 66.8728 56.9788C66.7519 56.9722 66.626 57.2726 66.4992 57.2982C66.3053 57.3373 66.3985 57.0179 66.3173 57.0287C66.1937 57.045 65.9924 57.2525 65.8989 57.2486C65.5924 57.2355 65.7998 57.0717 65.566 56.9966C65.1481 56.8622 65.175 57.1761 64.8746 57.2893C64.1872 57.5484 64.2563 56.3561 63.5571 57.1513C63.3898 57.3416 63.2821 57.6354 63.0529 57.6189C62.5783 57.5848 62.745 56.9388 62.8414 56.6225C62.9411 56.679 61.1075 57.7605 61.122 57.7183C61.1335 57.4588 61.4219 57.2588 61.1642 57.0285C60.9535 57.5477 60.7317 57.5568 60.2457 57.6534C60.0094 57.7004 59.963 57.7632 59.7102 57.6504C59.5491 57.5788 59.441 57.2838 59.2809 57.2675C59.3025 57.2698 59.0085 57.5266 58.9637 57.5498C58.6984 57.687 58.5306 57.5314 58.2729 57.5879C58.0531 57.636 57.9666 57.8506 57.7479 57.7918C57.4561 57.7135 57.6276 57.3134 57.2261 57.425C57.0888 57.4631 57.0064 57.7668 56.7901 57.8295C56.4531 57.9275 56.0399 57.7448 55.6838 57.8401C55.401 57.916 55.1912 57.948 54.9439 57.9637C54.7442 57.9766 54.8263 57.7983 54.4586 58.0089L54.3027 57.5575C54.1187 57.7476 53.9345 57.9376 53.7505 58.1277C53.7156 57.9573 53.6935 57.7848 53.6841 57.61C53.4096 57.9258 53.0639 57.9797 52.6949 58.0081C52.2952 58.0388 51.9975 58.1389 51.6087 58.2229C51.4857 58.2492 51.1692 58.2915 51.0681 58.2422C51.083 58.2494 50.879 58.152 50.9405 58.1705C50.914 58.1086 50.8894 58.0456 50.8666 57.9816C50.8324 57.8034 50.7207 57.7956 50.5323 57.958C50.4347 57.9408 50.2456 57.7939 50.1483 57.8301C49.8975 57.9234 49.9317 58.1468 49.6817 58.1141C49.5197 58.0926 49.4369 57.8176 49.2681 57.7988C49.0097 57.7704 48.7858 58.1025 48.553 58.1749C49.2608 57.9543 47.6351 58.1254 48.1405 58.1406C47.8092 58.1307 47.4651 58.1118 47.1587 58.2824C46.9896 58.1495 47.195 57.8824 47.024 57.7725C46.8689 57.6728 46.857 57.9361 46.8389 57.9419C46.9367 57.9101 46.8879 58.1341 46.7899 58.174C46.4849 58.2981 46.2409 57.9825 46.2251 57.6694C45.9659 58.1173 45.8932 57.9372 45.512 57.9649C45.1361 57.9922 44.812 58.2185 44.4359 58.2143C43.6922 58.2062 43.1876 57.9093 42.9393 57.1468C43.7318 57.2577 44.5294 56.6725 45.3043 56.8103C45.559 56.8556 45.7181 57.0753 45.9412 57.0363C46.2162 56.9883 46.4081 56.6439 46.7606 56.6067C47.5381 56.525 48.3046 56.6046 49.0874 56.4678C50.0225 56.3042 50.9984 56.2073 51.9424 56.287C52.672 56.3486 53.2627 56.0282 54.0025 55.9666C54.959 55.8866 55.9235 55.8724 56.8817 55.8148C57.8662 55.7555 58.9256 55.575 59.9074 55.6328C60.2139 55.6508 60.4777 55.6853 60.7819 55.6643C60.9105 55.6554 61.0323 55.5551 61.1673 55.5701C61.3431 55.5896 61.4186 55.7962 61.6009 55.789C61.9109 55.7769 62.2421 55.4836 62.6104 55.4757C63.2162 55.4626 63.8192 55.4641 64.4265 55.4245C64.9611 55.3896 65.5339 55.2463 66.0661 55.2541C66.4415 55.2594 66.5341 55.6267 66.7529 55.6647C67.1463 55.7327 69.1363 54.4324 69.3082 55.5994C70.3443 54.7853 71.7336 55.4747 72.8867 55.3218C74.3682 55.1252 75.8768 55.3003 77.3682 55.2304C78.8858 55.1591 80.4471 55.2251 81.9588 55.3894C82.585 55.4575 83.1898 55.5214 83.8178 55.48C84.0976 55.4616 84.4213 55.3796 84.7012 55.4537C84.769 55.4717 85.2881 55.8878 85.2237 55.8997C85.5073 55.6074 85.3153 55.5646 85.8142 55.5496C86.1987 55.538 86.5624 55.6334 86.9447 55.6593C87.6311 55.706 88.3226 55.5968 89.0074 55.6209C89.5792 55.641 90.1383 55.7378 90.713 55.7426C91.3326 55.7477 92.0643 55.7678 92.5125 56.3414C92.4652 56.1613 92.4181 55.9812 92.3706 55.8011C93.0622 55.8633 93.7456 56.1467 94.4448 56.0142C94.2679 56.2087 94.0883 56.3677 94.0207 56.653C94.3978 56.598 94.653 56.2959 95.05 56.2934C95.3834 56.2911 95.4528 56.4831 95.8048 56.235C95.8482 56.5391 95.8913 56.8431 95.9347 57.147C96.4222 57.0152 96.1024 56.5978 96.138 56.2216C96.5342 56.3582 96.8697 56.2013 96.7136 56.8558C96.593 57.3604 96.0445 57.6091 95.6318 57.4554ZM94.9468 63.0762C94.7768 63.6245 93.3065 63.3112 92.9588 63.2532C92.5096 63.1785 91.9957 63.06 91.582 63.0013C91.5324 62.9253 91.4729 62.8608 91.4036 62.8077C91.3515 62.891 91.2857 62.9501 91.2061 62.9848C91.0162 63.0326 91.0155 63.2577 90.7659 63.2079C90.7544 63.5411 90.9558 63.3518 91.1103 63.4727C90.7212 63.7722 90.8991 63.4274 90.6808 63.4329C90.6268 63.3447 90.5514 63.3102 90.4548 63.3292C90.3318 63.3658 90.2184 63.4263 90.1147 63.5106C90.0174 63.6285 89.9341 63.6346 89.8647 63.529C89.7983 63.4522 89.7172 63.4048 89.6214 63.3868C89.2381 63.4585 89.1309 63.6537 88.6993 63.6219C88.0825 63.5762 87.4153 63.7629 86.8082 63.6645C86.432 63.6037 85.8034 62.9249 85.6325 63.5866C85.3724 63.0961 84.9581 62.7623 84.7091 62.2611C85.8691 62.1841 87.0288 62.0924 88.19 62.0442C89.2066 62.0022 90.3186 62.1335 91.2686 62.0785C92.1585 62.027 93.101 61.914 94.0095 61.8207C94.9727 61.722 95.2914 61.9646 94.9468 63.0762ZM64.6818 63.1571C65.1031 63.2909 65.5042 62.9874 65.9128 63.0834C66.0478 63.115 66.3274 63.3974 66.3889 63.4029C66.5013 63.4134 66.8321 63.1361 66.9738 63.0989C67.8712 62.8644 68.9582 62.8894 69.8553 63.0335C70.3307 63.1097 70.4036 62.8599 70.8186 62.7386C71.2499 62.6123 71.8629 62.7096 72.3171 62.6747C73.3854 62.5926 74.4535 62.651 75.5145 62.5613C76.604 62.4692 77.688 62.4194 78.778 62.3549C79.5204 62.3111 81.3046 61.8247 81.9199 62.4576C82.4273 62.9795 81.7736 63.8855 81.266 64.0923C80.8865 64.2466 80.7046 63.9214 80.4229 63.9524C80.102 63.9877 80.2138 64.4231 79.9274 64.0194C79.75 64.4208 78.6345 64.2497 78.3148 64.2762C77.6183 64.334 77.0289 64.4946 76.5547 63.7483C76.5869 63.9634 76.619 64.1788 76.6512 64.3939C76.0223 64.008 75.3475 64.1316 74.8017 64.2662C74.5314 64.3327 73.7018 64.7929 73.409 64.5945C73.2075 64.458 73.5627 64.2245 73.2227 64.1079C73.0445 64.0469 72.737 64.3865 72.5194 64.3695C71.9169 64.3219 72.0879 63.8567 71.4962 64.4487C71.2957 64.2497 71.2291 63.9113 71.2555 63.6211C70.8257 64.0421 70.8616 64.7438 70.0932 64.6153C69.8068 64.5676 69.7542 64.232 69.6048 64.1702C69.2868 64.0383 69.2507 64.2755 68.9752 64.4631C68.8712 64.5338 68.7444 64.6477 68.6219 64.6619C68.3703 64.6908 68.3304 64.5581 68.2959 64.5624C68.1286 64.5837 67.9177 64.6813 67.7191 64.6115C67.5408 64.5488 67.4887 64.1877 67.1747 64.272C66.8741 64.353 66.8716 64.5874 66.9262 64.9383C66.6298 64.9031 66.4505 64.7135 66.2288 64.5082C66.0049 65.1078 65.5337 64.6111 65.2731 65.1171C64.9334 64.6515 64.7156 64.7797 64.2944 64.3249C64.3152 64.5147 64.3358 64.7044 64.3564 64.8941C64.0276 64.8214 63.8814 64.5552 63.601 64.9074C63.3288 64.3251 62.5034 65.1548 62.0795 64.5924C61.8906 65.3047 60.6404 65.1343 60.1123 65.1466C59.6444 65.1576 59.298 65.1136 58.8409 65.2384C58.4368 65.3487 57.8769 65.463 57.4969 65.4126C57.2486 65.3796 56.9772 65.3273 56.6679 65.3659C56.2219 65.4215 55.8368 65.6865 55.3748 65.5612C54.6792 65.3724 54.2529 64.3232 55.0276 63.8624C55.5578 63.547 56.5129 63.6638 57.0964 63.6056C58.0633 63.5091 59.147 63.3068 60.1153 63.3988C60.8706 63.4706 61.5589 63.2636 62.3295 63.1762C62.9097 63.1105 63.8605 62.992 64.2388 63.6522C64.3841 63.4594 64.3691 63.0578 64.6818 63.1571ZM54.0964 72.1949C53.9926 71.6011 58.4134 71.2741 58.8521 71.2352C59.7734 71.1537 60.6971 71.0955 61.6206 71.0686C62.3796 71.0464 63.088 71.2129 63.8473 71.079C64.5564 70.9541 65.4122 70.6981 66.0293 71.2745C66.1202 70.4861 68.7811 70.8702 69.2874 70.8724C71.4912 70.8815 73.6001 70.8874 75.7318 70.7307C76.9501 70.6412 78.2438 70.5206 79.4622 70.5906C80.0118 70.6222 80.4543 70.7904 81.0009 70.6444C81.3573 70.5492 81.7415 70.3512 82.0824 70.6311C82.4814 70.9591 82.6519 72.0721 82.377 72.5367C82.1769 72.8752 81.9997 72.8377 81.6798 72.7791C81.1882 72.6893 80.8228 72.5587 80.3215 72.7882C80.4027 72.7509 79.9856 72.8578 80.0202 72.8548C79.4523 72.9035 78.6734 73.359 78.1841 72.8339C78.3801 72.8734 78.665 72.4715 78.4179 72.4383C78.2322 72.4137 78.1145 72.6421 77.9696 72.7187C77.4742 72.9805 77.2206 72.8986 76.9247 72.3494C76.328 72.9425 76.2637 72.7784 76.0017 72.048C75.8001 72.2264 75.7567 72.6484 75.598 72.7867C75.5744 72.8074 75.672 73.0637 75.5574 73.053C75.4511 73.0432 75.4163 72.843 75.3345 72.8273C75.2822 72.8171 75.255 72.6415 75.2051 72.6309C75.1508 72.6193 75.0951 72.7314 75.0338 72.7282C74.8697 72.7192 74.4009 73.12 74.569 72.5576C74.3206 72.9205 74.2137 72.6891 74.124 72.3589C73.8372 72.6093 73.5505 72.8597 73.2634 73.1099C73.1301 72.6842 72.9006 72.8002 72.6117 72.9488C72.6987 72.6531 72.6442 72.3733 72.4259 72.579C72.2994 72.698 72.2145 73.076 72.0851 73.2365C71.5615 72.6275 71.3711 72.7945 70.6475 72.8737C70.3713 72.9039 70.028 72.9624 69.7814 72.7708C69.5644 72.6025 69.4418 71.9845 69.0708 72.4838C69.1534 72.3727 69.024 73.2255 69.0011 73.3611C68.8375 73.2344 68.6985 73.0786 68.5841 72.894C68.3706 73.3793 67.8102 72.9439 67.3511 73.043C66.6281 73.1992 65.8824 73.4621 65.2439 72.8444C65.1987 73.0438 64.6756 73.2978 64.6749 73.3055C64.7059 72.9524 64.9 73.0765 64.5036 73.0094C64.4307 72.9971 64.348 73.1478 64.2791 73.1643C64.0428 73.2204 63.7668 73.1672 63.5287 73.1594C62.5382 73.1266 61.6314 73.3787 60.6533 73.4701C60.3235 73.5008 59.9325 73.5612 59.6228 73.4185C59.304 73.2712 59.3127 73.1042 58.9901 73.199C59.0921 73.1691 58.7884 73.5355 58.8049 73.5216C58.7616 73.5578 58.5805 73.3791 58.5162 73.3925C58.4974 73.4706 58.4788 73.5487 58.46 73.6268C58.3822 73.6158 58.3044 73.6048 58.2267 73.5938C58.014 73.6266 57.8221 73.3795 57.6223 73.3711C57.6591 73.3726 57.083 73.6189 57.1092 73.6338C56.7071 73.4035 56.8225 73.4702 56.3124 73.6105C55.8302 73.743 55.3501 73.7121 54.8553 73.7948C53.4162 74.0347 54.2737 73.2066 54.0964 72.1949ZM52.8255 80.4571C52.5549 80.0164 53.2749 79.864 53.5049 79.8252C53.8831 79.7611 54.3848 79.8885 54.6369 79.8195C55.0207 79.7147 55.3911 79.4645 55.8233 79.3966C56.3685 79.3109 56.9182 79.2971 57.4657 79.2434C57.648 79.2254 57.8739 79.1534 58.0513 79.1655C58.3156 79.1837 58.4254 79.3443 58.6387 79.3454C59.0021 79.3475 59.4505 79.084 59.823 79.0357C60.2999 78.9735 60.7817 78.9445 61.261 78.9172C62.2708 78.8596 63.2702 78.8835 64.2796 78.8822C64.7399 78.8814 65.9658 78.3328 66.1953 78.9479C66.5145 78.4818 67.3331 78.5453 67.7895 78.5319C68.5932 78.5082 69.3887 78.4191 70.1918 78.3762C70.8794 78.3395 71.6479 78.5086 72.3232 78.3901C72.6953 78.3249 72.8186 78.188 73.2407 78.2498C73.5543 78.2955 74.0322 78.1052 74.3014 78.1893C74.2874 78.185 74.6373 78.4339 74.5281 78.4418C74.6483 78.4329 74.6412 78.5294 74.7738 78.4864C74.9479 78.4301 74.8679 78.1787 75.2287 78.0894C75.7914 77.9501 76.5417 78.1114 77.1263 78.0756C77.6935 78.0409 78.2596 78.026 78.8274 78.029C79.0887 78.0303 79.4119 77.9587 79.6661 78.0172C79.7907 78.0459 80.0555 78.2326 80.161 78.2138C80.4603 78.1602 80.6126 77.9215 81.017 77.9363C81.4755 77.953 81.8882 77.9458 82.3441 77.9056C82.7854 77.8669 82.8563 77.7945 83.0751 78.2163C83.2919 78.6346 83.3518 79.1794 82.9526 79.4637C83.212 79.4442 83.5308 79.8428 83.2253 80.0634C83.0365 80.1999 82.658 79.8921 82.432 79.9143C82.1535 79.9418 81.9349 80.1108 81.6318 80.1213C81.3131 80.1324 80.9897 80.2246 80.6754 80.2316C80.3482 80.239 80.1007 80.071 79.7903 80.1425C79.5171 80.2056 79.4882 80.4626 79.1593 80.2369C78.9959 80.1245 78.9682 79.7086 78.7453 79.7048C78.4464 79.6995 78.5656 80.1429 78.3938 80.3482C78.3477 79.7143 77.9215 80.7633 77.752 79.9937C77.5958 80.2492 77.0175 80.6067 76.7374 80.4014C76.482 80.2143 76.5667 79.7909 76.4604 79.4859C76.2833 80.0341 75.8082 80.6029 75.8512 79.6047C75.6204 79.931 74.9967 79.8794 75.153 80.4503C74.965 80.4462 74.9205 80.1379 74.7623 80.1146C74.6257 80.0945 74.5173 80.2151 74.4963 80.2132C74.5712 80.2204 74.2726 80.3345 74.268 80.3356C74.4701 80.2884 73.6848 80.2081 73.8185 80.2094C73.6364 80.2077 73.4133 80.3791 73.2003 80.3785C73.0062 80.3779 72.8132 80.2902 72.6216 80.2651C72.1248 80.1999 72.2282 80.3252 71.9165 80.5043C71.8009 80.5707 71.7719 80.6831 71.6078 80.6691C71.4868 80.6586 71.4415 80.4772 71.4278 80.4757C71.2576 80.456 71.3833 80.3904 71.119 80.4208C71.0886 80.4807 71.0585 80.5404 71.0281 80.6003C70.9327 80.7405 70.8089 80.7756 70.6568 80.7057C70.2658 80.8019 68.9686 81.2195 69.0957 80.4463C68.8969 80.5578 68.6982 80.6694 68.4994 80.7811C68.4141 80.1577 67.3342 80.9843 67.093 81.026C66.7836 81.0793 66.7551 80.943 66.4624 80.8704C66.4097 80.8573 66.304 81.0571 66.1803 81.0285C65.8593 80.9543 65.8021 80.9176 65.7471 80.5172C65.5182 81.0086 65.328 80.7889 64.9128 80.8696C64.821 80.8876 64.7623 81.0952 64.6304 81.0594C64.5354 81.0336 64.5328 80.8342 64.4673 80.8084C64.4083 80.7851 64.4172 80.6277 64.3303 80.6054C64.2308 80.5796 63.8911 80.8994 63.7937 80.9487C63.5739 81.0599 63.213 81.244 62.9985 81.1888C62.7333 81.1208 62.8513 80.895 62.4766 80.9204C61.8853 80.9602 61.6387 81.538 61.2709 80.6276C61.1048 80.9923 61.1259 81.0912 60.8594 81.2116C60.6623 81.3005 60.1633 81.2076 59.9039 81.1966C58.796 81.1496 57.7067 81.5831 56.608 81.4695C56.1251 81.4197 55.7179 81.3088 55.2306 81.3994C54.7185 81.4949 54.2176 81.6352 53.6981 81.6917C53.434 81.7203 52.882 81.8075 52.7524 81.4197C52.6383 81.0783 53.0639 80.8455 52.8255 80.4571ZM54.9983 94.4544C53.5613 95.5584 52.3711 97.0659 51.0516 98.3424C49.7287 99.6222 48.679 101.045 47.4893 102.462C46.3893 103.772 45.3788 105.012 44.049 106.001C43.2075 106.628 42.4569 107.399 41.5924 107.99C40.945 108.432 39.9642 109.014 40.2801 107.661C40.6039 106.274 41.2015 104.872 41.7206 103.577C42.4583 101.736 43.2019 99.912 44.0002 98.1058C44.3003 97.4272 44.4681 96.7516 44.9439 96.211C45.4616 95.6227 45.8241 94.8546 46.3911 94.2986C48.7759 91.9605 52.3701 93.7669 54.9983 94.4544ZM59.5061 95.2472C58.8542 95.6395 58.1247 95.7368 57.4339 95.9963C56.8451 96.2173 56.2978 96.6104 55.6647 96.6396C56.241 96.1426 56.7361 95.4674 57.3859 95.0902C58.1168 94.6658 58.7802 94.9748 59.5061 95.2472ZM88.1171 98.5171C85.7194 97.5881 83.4871 96.2192 81.1517 95.1175C80.7486 94.9272 77.5958 93.7349 77.6598 93.1674C79.8692 92.7026 82.1446 91.905 84.3593 92.7746C86.374 93.5658 88.0128 95.4634 89.5724 97.0517C89.9793 97.4661 92.496 99.3532 92.2708 99.9543C92.1149 100.371 90.9023 100.257 90.6159 100.172C90.2459 100.061 90.0329 99.8036 89.7427 99.5202C89.2577 99.0469 88.721 98.751 88.1171 98.5171ZM83.6909 82.9958C84.0551 82.611 84.273 82.0272 84.6209 81.672C85.0679 81.2156 85.7892 81.4379 86.2777 81.675C87.7439 82.3864 88.997 83.5825 90.4541 84.3248C92.0689 85.1474 93.4668 86.2468 94.9232 87.3798C96.2546 88.4153 97.694 89.2727 99.0529 90.261C100.438 91.2683 101.988 91.923 103.391 92.8944C104.82 93.8833 106.243 94.8762 107.616 95.9657C110.064 97.9088 112.613 99.9041 114.424 102.667C115.355 104.087 116.226 105.697 116.909 107.292C117.53 108.741 118.203 110.753 117.399 112.261C116.626 113.709 115.309 114.85 114.194 115.93C113.772 116.339 113.37 116.836 112.823 117.014C112.157 117.229 111.381 117.17 110.696 117.234C107.036 117.574 103.626 117.253 100.019 116.501C96.5414 115.776 93.049 115.37 89.5444 114.867C87.5673 114.582 85.5905 114.251 83.6403 113.778C82.8065 113.576 81.9583 113.343 81.1425 113.067C80.4301 112.826 79.831 112.296 79.0985 112.086C75.9897 111.195 72.4326 110.854 69.3549 109.354C72.0785 108.055 74.973 107.27 77.7643 106.189C80.7023 105.053 83.5717 104.099 86.6684 103.776C88.2619 103.61 89.688 103.142 91.2208 102.653C92.6815 102.187 94.2066 102.044 95.707 101.835C96.3743 101.743 98.2785 101.882 98.4996 100.88C98.8288 99.3889 96.9579 99.2168 96.1602 99.3504C95.0288 99.5398 94.0958 99.8641 93.2299 98.7982C92.3457 97.7096 91.4865 96.5952 90.5864 95.5205C88.9172 93.5277 87.1968 91.223 84.8374 90.3288C81.9589 89.2382 78.621 90.2735 75.749 90.8937C72.7154 91.5488 69.6868 92.176 66.7101 93.1283C65.4773 93.5226 63.8877 94.3913 62.6083 94.2518C61.3474 94.114 59.9193 93.8771 58.7009 93.4595C58.1496 93.2707 57.6963 92.9206 57.2031 92.5942C56.5616 92.1696 55.8587 91.8976 55.178 91.5676C53.8013 90.9003 52.4593 90.2858 50.9741 90.0235C49.7234 89.8026 48.3953 89.6717 47.1831 90.1751C45.9941 90.6691 44.9404 91.6749 44.1108 92.7492C43.2096 93.9165 42.4648 95.2246 41.7262 96.5287C41.3715 97.1546 40.9387 97.7009 40.5714 98.3128C40.2631 98.8267 40.0831 99.3976 39.7568 99.8971C39.0266 101.014 38.5308 102.444 38.0883 103.744C37.5967 105.188 37.0505 106.905 37.1679 108.475C37.2122 109.069 37.2585 109.855 37.4585 110.406C37.7129 111.106 38.0756 111.088 38.5984 111.352C39.4966 111.806 39.7486 113.06 40.9092 112.815C41.998 112.586 42.9422 111.556 43.7366 110.735C44.7719 109.665 45.7628 108.536 46.7535 107.412C47.7701 106.258 48.772 104.979 49.5807 103.621C49.899 103.087 50.1472 102.483 50.5234 101.997C51.0025 101.377 51.5405 101.302 52.1912 101.056C57.8807 98.897 63.5977 96.8148 69.4647 95.3895C70.8704 95.0479 72.2874 94.6074 73.6682 94.1529C75.1327 93.6708 75.8911 94.1804 77.0998 95.0978C79.6249 97.0151 82.6095 98.3655 85.4214 99.6163C86.3067 100.01 87.7162 100.035 88.4083 100.812C84.3058 101.53 80.3963 102.912 76.4395 104.288C74.4886 104.966 72.5153 105.554 70.5569 106.203C68.598 106.852 66.7135 107.693 64.7814 108.424C62.8586 109.153 60.8264 109.45 58.8849 110.121C56.903 110.807 54.9293 111.278 52.895 111.695C50.8409 112.116 48.801 112.602 46.7398 112.978C45.7961 113.151 44.8526 113.33 43.9192 113.567C43.006 113.8 42.1238 114.356 41.206 114.485C37.1073 115.06 33.0892 116.344 29.0065 117.069C25.9581 117.61 20.6548 118.366 18.678 114.854C16.6902 111.322 19.1289 107.202 21.3048 104.676C22.6571 103.107 24.1767 101.726 25.771 100.497C27.4772 99.1817 29.1188 97.7616 30.8254 96.4483C34.6874 93.4765 38.8752 91.0527 43.0245 88.6648C45.0161 87.5185 46.9403 86.2893 48.8777 85.0314C49.8392 84.407 50.3714 85.4145 51.1314 86.0992C51.7292 86.6379 52.8271 87.9655 53.6635 87.3517C53.6956 87.5728 53.7279 87.7938 53.7601 88.015C54.0051 87.8867 54.2503 87.7585 54.4952 87.6302C54.6598 88.1259 54.6405 88.4337 55.1003 88.694C55.3826 88.8539 55.985 89.0463 56.2542 88.7647C56.3091 88.9605 56.364 89.1561 56.4189 89.3517C56.6542 89.331 56.6997 88.558 56.7441 88.377C57.1473 89.0533 57.7051 89.6186 58.4138 89.8097C58.4173 89.7655 58.2986 89.2099 58.3037 89.2065C58.5279 89.0488 58.8109 89.724 58.9297 89.8686C59.3239 90.3476 59.559 90.2733 59.9944 89.8866C60.0261 89.926 60.1735 90.3677 60.1949 90.3597C60.2892 90.3254 60.4681 89.934 60.4877 89.8984C60.4605 90.4132 61.3259 90.5169 61.6316 90.4064C61.563 90.2555 61.4944 90.1048 61.426 89.9539C62.4906 89.7907 62.9085 91.0895 63.9304 91.0236C64.6858 90.9746 64.0799 90.7851 64.5074 90.4136C64.8808 90.0889 64.9474 90.7989 64.984 90.7764C65.0553 90.6907 65.1105 90.5923 65.1497 90.4811C65.2879 91.0891 66.3884 91.6347 66.2746 90.6348C66.7076 90.8336 67.0149 91.1636 67.494 91.2334C68.0763 91.3181 68.6984 91.1761 69.2792 91.1208C70.5311 91.0012 71.711 90.7079 72.8394 90.0494C73.5084 89.659 74.2205 89.3047 74.8493 88.8336C75.3756 88.4394 76.374 87.2426 77.0747 87.7579C76.8953 87.1501 77.7401 87.7134 77.767 86.9304C77.9027 87.0479 78.0384 87.1652 78.174 87.2827C78.2555 87.0778 78.2327 86.755 78.3417 86.5765C78.4914 86.3312 78.5645 86.4756 78.6921 86.3376C78.8348 86.1833 78.9595 85.7699 79.1306 85.6522C79.307 85.5311 79.5146 85.6755 79.7044 85.5698C79.9934 85.4084 81.2365 83.8344 81.0261 85.1831C81.5606 84.9746 81.1484 84.7839 81.2152 84.3748C81.3493 83.5552 81.6757 84.1451 82.0008 84.2165C82.5332 84.3337 82.5225 83.8283 82.8194 83.461C83.0904 83.1255 83.6 82.9754 83.4245 82.3927C83.6249 82.5168 83.6676 82.7598 83.6909 82.9958ZM51.599 65.4892C51.1796 66.0256 50.8655 65.7962 50.3992 65.7176C50.3493 65.5256 50.264 65.499 50.1435 65.6378C50.0054 65.7289 49.8568 65.789 49.6977 65.8176C49.3154 65.9259 48.9182 65.8798 48.5441 66.0438C48.5549 65.8999 48.6864 65.6442 48.6022 65.4981C48.2088 65.8104 47.965 66.0093 47.4819 66.0152C47.0905 66.0199 46.4035 65.6766 46.0785 66.087C46.0685 65.9272 46.0584 65.7676 46.0485 65.6078C45.8894 65.6988 45.7509 65.8207 45.6331 65.9735C45.6108 65.7367 45.5984 65.5578 45.4621 65.3663C45.2036 65.9771 44.9203 65.9915 44.418 65.7581C44.4884 65.7907 43.9151 65.405 43.937 65.5119C43.7559 64.635 46.6167 64.7074 46.917 64.6728C47.667 64.5857 48.417 64.5353 49.1682 64.4559C49.8806 64.3806 50.4123 64.2531 50.9054 64.9357C50.6856 63.9498 52.7643 63.9987 51.599 65.4892ZM18.7983 50.2001C18.8771 51.6905 19.166 53.2748 18.6613 54.7093C18.2556 55.8624 17.4462 57.1646 16.5744 57.9171C14.7892 59.4578 13.276 57.5725 13.0276 55.5005C12.7686 53.3394 13.282 50.6988 14.9025 49.3662C15.8708 48.5701 16.8084 48.6253 17.9232 48.887C18.185 48.9486 18.6101 48.9249 18.7598 49.2237C18.7949 49.2936 18.7634 50.1987 18.7983 50.2001ZM42.5085 70.0581C42.2002 70.2369 41.8775 70.3415 41.6056 70.5847C41.5112 70.6692 41.479 70.8616 41.3788 70.9327C41.1964 71.0622 40.9358 70.9763 40.7457 71.0832C40.4311 71.2597 40.2056 71.5124 39.8316 71.675C39.2764 71.9167 38.7895 72.248 38.2647 72.5623C37.3903 73.0858 36.4518 73.5353 35.5376 73.9616C35.0762 74.1767 33.7999 74.596 33.8441 75.3718C33.7409 75.4039 33.6354 75.1446 33.4199 75.1652C33.124 75.1935 32.7331 75.5864 32.4259 75.6831C31.8513 75.8637 31.4065 75.8796 31.4065 76.7209C31.2237 76.5781 31.1772 76.229 30.9338 76.1827C30.66 76.1306 30.5447 76.4699 30.3256 76.5755C30.0676 76.6998 29.7468 76.5806 29.4912 76.7129C29.3795 76.8486 29.2553 76.9671 29.1186 77.0681C28.9796 77.0865 28.8413 77.0818 28.7037 77.0534C28.1612 77.1855 27.662 77.4198 27.1183 77.5415C26.5884 77.6603 26.2255 77.7035 26.4482 78.4231C25.8814 78.5504 25.7429 77.8597 25.1034 78.1124C24.3195 78.4217 23.5868 78.645 22.7684 78.8338C22.3511 78.9301 21.915 79.1451 21.4946 79.1955C21.1947 79.2315 20.9148 79.1083 20.6195 79.1466C20.2635 79.1925 19.9775 79.3818 19.6092 79.3888C19.2598 79.3958 18.893 79.3238 18.5499 79.2531C18.5983 79.4118 18.659 79.564 18.7319 79.7097C18.4946 79.6527 18.3852 79.3251 18.184 79.2766C17.973 79.2258 17.7839 79.4758 17.6081 79.4205C17.5333 79.3968 17.5831 79.1318 17.4492 79.0812C17.3272 79.0353 17.2758 79.0895 17.1548 79.0677C17.1144 79.0605 16.6082 79.0291 16.5276 79.078C16.3866 79.1638 16.5292 79.3246 16.5012 79.3485C16.0252 79.753 16.0195 79.5346 15.8073 79.1121C15.4957 78.4919 15.1199 78.8833 14.5536 78.7747C13.9225 78.6537 13.4253 78.9735 12.804 78.928C12.134 78.8789 11.3466 78.3033 10.7542 77.967C9.475 77.241 8.2276 76.5539 7.15331 75.4543C5.05321 73.3048 3.34468 70.6613 2.33733 67.6349C1.25497 64.3837 1.04987 60.9928 1.13675 57.5435C1.18902 55.469 1.33361 53.3959 1.61834 51.3457C1.81437 49.9354 1.85542 47.4294 3.23999 46.7872C3.47806 50.0892 2.72691 53.4539 3.20058 56.7345C3.34319 57.7226 3.69107 59.0393 4.34939 59.7711C5.32409 60.8544 5.55211 59.2885 5.64031 58.4234C5.80436 56.8169 6.1092 55.2192 6.32501 53.6203C6.54066 52.022 6.693 50.4059 6.9929 48.8245C7.1022 48.2479 7.98392 44.0252 8.63103 44.2252C8.50013 47.2971 8.15242 50.3161 8.13874 53.3993C8.1333 54.636 8.03685 55.9422 8.19232 57.1707C8.27228 57.8028 8.77365 59.658 9.63591 59.5033C10.4339 59.3602 9.55661 58.0534 9.48209 57.5496C9.28474 56.2157 9.53633 54.5562 9.72032 53.2321C10.0685 50.7266 10.8454 48.1605 12.1152 46.0667C13.2525 44.1918 15.0035 42.407 17.113 42.7376C18.0144 42.879 18.7175 43.136 19.1704 44.0811C19.5257 44.8228 20.9255 45.6656 20.1143 46.5942C19.3759 47.4396 18.1816 46.7629 17.3607 46.5614C16.3556 46.3146 15.2785 46.6115 14.438 47.2878C12.9959 48.4478 12.1741 50.5219 11.9058 52.4671C11.5443 55.0899 12.5107 61.9551 16.0704 60.4165C18.4351 59.3943 20.2162 55.7174 20.0177 52.9023C19.9381 51.7754 19.5544 49.6361 20.9121 49.3319C22.6515 48.9422 22.8971 51.144 22.7211 52.5748C22.465 54.6561 21.5071 56.5914 20.4112 58.2369C19.4562 59.671 18.3453 60.5678 17.196 61.7523C16.8557 62.103 15.9878 62.8913 16.1336 63.5436C16.2933 64.2584 17.6573 64.4616 18.2035 64.5791C20.9054 65.1599 23.9523 64.6255 26.6496 64.2201C32.1933 63.3864 37.6641 61.3332 42.2099 57.5583C42.3935 59.8939 42.625 62.2218 42.7103 64.566C42.7516 65.7039 42.7622 66.8583 42.8755 67.9899C42.9452 68.6861 43.1973 69.6585 42.5085 70.0581ZM27.1367 78.1967C26.9191 78.3273 27.1544 77.5367 27.0939 77.7983C27.419 77.9321 27.4333 78.065 27.1367 78.1967ZM50.1336 49.9305C50.4792 49.4932 51.4231 48.453 51.7226 49.4401C51.8341 49.0193 51.8486 48.3961 52.2789 48.9644C52.4502 48.2662 54.3401 48.3316 54.8082 48.3007C56.307 48.2024 57.8119 48.1497 59.3055 47.9787C62.3745 47.6274 65.4971 47.8087 68.5774 47.7971C69.2444 47.7946 69.9097 47.7531 70.5718 47.8642C71.2108 47.9715 71.8823 48.2723 72.5336 48.1624C73.1126 48.0646 73.4923 47.8813 74.0883 47.9597C74.8015 48.0536 75.4938 48.1203 76.2133 48.1173C79.3957 48.104 82.5765 48.252 85.7597 48.2577C86.3801 48.2589 87.1233 48.1197 87.7053 48.4222C87.9209 48.5345 88.1565 48.9077 88.3212 48.9486C88.51 48.9954 88.3979 48.6573 88.6505 48.8101C88.989 49.0144 88.727 49.643 88.5034 49.7427C88.6373 49.683 88.2617 49.6242 88.2993 49.6219C88.1211 49.6329 87.9691 49.7899 87.7777 49.78C87.4862 49.7654 87.2422 49.5613 87.0072 49.3816C87.0033 49.4549 87.1324 49.9442 86.985 49.9688C86.8582 49.9902 86.7393 49.5078 86.7266 49.3956C86.0146 50.1168 85.2601 49.7148 84.3764 49.8062C83.7497 49.871 82.4428 50.3511 82.0056 49.5997C81.9875 49.7595 81.9316 49.8994 81.8383 50.0194C81.7133 50.238 81.6053 50.2194 81.514 49.9631C81.4831 49.9648 81.1786 50.0408 81.1727 50.0403C80.9584 50.0207 80.6805 49.9324 80.4626 49.911C80.1253 49.878 80.1874 50.1599 79.9187 50.1644C79.772 50.1669 79.3977 49.9235 79.1418 49.9083C78.6987 49.8818 78.2459 50.0977 77.8087 50.0323C77.5076 49.9874 77.2356 49.7061 76.9403 49.6951C76.5723 49.6811 76.453 50.0033 76.1615 49.5507C76.1016 49.5321 76.0647 49.7984 76.041 49.8029C76.0467 49.8018 75.7635 49.85 75.73 49.8649C75.6718 49.8905 75.4455 50.0096 75.3765 50.0109C75.2277 50.0141 75.1469 49.8917 74.9891 49.8888C74.7281 49.8837 73.8949 50.1475 73.9181 49.5931C72.9868 49.9895 72.1919 49.835 71.2359 49.9286C70.7971 49.9718 70.5217 49.9044 70.1044 49.8119C69.5817 49.696 69.2347 49.8416 68.7134 49.871C68.2125 49.8992 68.0546 49.6558 67.6318 49.4362C67.465 49.3495 67.3549 49.2352 67.1503 49.2834C67.0337 49.3109 67.1166 49.5364 67.0822 49.5518C66.9025 49.6314 66.777 49.547 66.5307 49.5664C66.0758 49.602 65.8948 50.0386 65.4272 49.6287C65.5825 49.6071 65.738 49.5851 65.8935 49.5635C65.4463 49.3459 64.8563 49.2349 64.9646 50.0274C64.5832 49.966 64.9133 49.6678 64.7259 49.5611C64.5384 49.4545 64.3285 49.6329 64.0924 49.7211C63.4691 49.9533 62.9492 49.838 62.2991 49.7963C61.5605 49.7489 59.8326 50.441 59.3036 49.5425C59.2878 49.7319 59.1108 50.2594 58.8752 50.2346C58.7983 50.2264 59.0125 49.6665 59.0367 49.6071C58.9154 49.9038 58.3618 49.9601 58.0889 50.114C58.1196 49.9546 58.1501 49.7952 58.1806 49.6359C57.9273 49.9457 57.8042 49.7567 57.5061 49.8602C57.3758 49.9055 57.1872 50.2141 57.0758 50.2327C56.946 50.0598 56.7828 49.9855 56.5863 50.0096C56.4555 49.972 56.3248 49.9646 56.1942 49.9876C55.6711 50.0312 55.1941 50.365 54.6738 50.1377C54.2234 49.9406 54.0491 49.4339 53.7805 50.24C53.7098 50.0967 53.6392 49.9534 53.5685 49.8101C53.4815 49.9658 53.3943 50.1212 53.307 50.2766C52.9663 50.0204 52.9453 49.8719 52.5531 49.9661C52.4611 50.0082 52.3666 50.0023 52.27 49.9483C52.2469 50.0274 52.2239 50.1062 52.2008 50.1851C52.1915 50.3835 52.1403 50.4491 52.0469 50.3816C51.9685 50.3492 51.8976 50.3001 51.8344 50.2342C51.5749 50.2569 51.2435 50.3354 50.9651 50.292C50.8576 50.2755 50.1838 49.867 50.1336 49.9305ZM58.0737 44.5944C58.1042 44.6483 58.1349 44.7021 58.1654 44.7559C57.7442 45.0114 57.6451 44.8647 57.6015 44.3518C57.8073 44.3563 57.8424 44.772 58.0737 44.5944ZM58.3347 44.2934C58.5375 44.3962 58.7701 44.598 58.9612 44.3275C59.0898 44.7569 58.1346 45.3428 58.3347 44.2934ZM59.6448 44.483C60.0706 44.8135 59.0491 44.5478 59.0507 44.5484C59.2344 44.3537 59.4322 44.3319 59.6448 44.483ZM63.3077 42.6399C63.4537 43.4861 63.8565 43.462 64.5067 43.0687C65.4549 42.4949 65.615 41.5553 65.6811 40.4334C65.7446 39.3577 65.8592 38.9412 66.8251 39.1658C67.4994 39.3226 68.0697 39.1909 68.7495 39.1692C69.4749 39.1463 69.7305 39.2735 69.7888 40.1307C69.8473 40.9889 69.9802 41.6406 70.5227 42.2938C71.0741 42.9578 71.8094 43.3544 72.526 43.7259C72.8944 43.9168 73.2405 44.1222 73.6482 44.1636C73.8062 44.1797 74.6284 44.0603 74.6456 44.359C74.6584 44.5836 73.5198 45.2171 73.3989 45.2925C72.8709 45.6224 72.3443 45.9183 71.7674 46.118C70.4404 46.5779 69.0332 46.605 67.6587 46.5771C65.4424 46.5324 62.3794 45.4559 61.0542 43.198C61.8054 43.012 62.5565 42.8259 63.3077 42.6399ZM63.1088 35.3117C62.7581 34.9737 62.5311 34.4632 62.2398 34.0631C62.0929 33.8612 61.9852 33.797 61.8454 33.6959C61.6982 33.5896 61.6153 33.7401 61.4925 33.4901C61.1751 32.8439 62.1544 31.9346 61.1157 31.6859C60.7644 31.6016 59.9186 31.9213 59.8161 31.3432C59.671 30.5257 61.0298 30.4722 61.3495 30.0573C61.9852 29.2323 61.5538 27.8338 61.9409 26.8821C62.3074 25.9806 63.2536 25.8204 64.0003 25.5495C65.0408 25.1723 66.0938 24.9536 67.1503 24.6516C67.889 24.4407 69.1163 23.5928 69.8013 24.3419C68.7442 24.6114 69.3587 25.0345 70.0633 25.2734C70.8615 25.544 71.7074 25.6496 72.5344 25.7251C73.3858 25.8026 74.2533 25.8174 75.0945 25.6225C75.8723 25.4422 76.7412 24.6658 77.5568 24.8647C77.1042 25.7683 75.7561 26.2619 74.9368 26.4986C74.5194 26.6192 74.2521 26.5815 74.3082 27.1791C74.3624 27.7584 74.801 28.3392 74.9001 28.9425C75.031 29.7411 74.9166 30.4749 74.6691 31.2259C74.4256 31.9647 74.3687 32.0612 74.5816 32.7673C74.9131 33.8667 74.2004 35.0817 73.5417 35.8801C70.8779 39.1082 65.78 37.8854 63.1088 35.3117ZM69.8777 16.0187C69.8793 16.0391 69.8884 16.0516 69.8777 16.0187V16.0187ZM70.7073 24.1652C70.5968 24.26 69.9608 24.4587 69.9873 24.1732C70.0229 23.7907 70.5962 23.9289 70.7073 24.1652ZM72.1572 16.4381C72.0079 16.3104 71.5898 16.3629 71.8955 15.8786C71.9951 16.0916 72.0762 16.2649 72.1572 16.4381ZM62.1242 13.3767C62.3145 12.809 62.5252 12.2809 62.6109 11.6766C62.6638 11.3043 62.5587 10.8791 63.0119 10.8208C62.4343 10.5315 62.4284 9.38983 62.3943 8.79804C62.3475 7.98297 62.1232 6.89172 62.4352 6.13313C62.7553 5.35388 63.1873 5.36677 63.3177 6.29482C63.3688 6.65819 63.1735 6.77571 63.1367 7.02876C63.0641 7.52937 63.2086 7.41962 63.4898 7.03824C63.6059 7.42588 63.6504 8.00837 64.1229 7.98373C64.0914 7.87891 63.9104 7.64765 63.9709 7.51743C64.0637 7.31745 64.5176 7.62301 64.5752 7.66926C64.9896 8.00211 65.0795 8.30597 64.7839 8.72582C65.1931 8.77643 64.8497 9.18776 65.1138 9.29505C65.5167 9.45863 65.2465 8.68355 65.2028 8.54727C65.4481 8.65721 65.5304 8.78269 65.6857 9.00522C65.7769 9.15876 65.86 9.31818 65.9348 9.48309C66.0183 9.78409 66.1901 9.85954 66.4505 9.70941C66.9725 9.89745 67.693 9.86807 68.1609 10.1968C68.3746 10.3469 68.4517 10.6754 68.6303 10.8001C68.8311 10.9406 69.1002 10.8769 69.316 10.965C69.237 11.1709 69.301 11.2823 69.5074 11.2998C69.6678 11.3166 69.8231 11.3581 69.9733 11.4241C70.0856 11.3269 70.2079 11.2501 70.3398 11.1942C70.4285 11.3737 70.5538 11.418 70.716 11.3276C71.1973 11.4311 71.4286 11.6402 71.7344 11.9528C72.0091 12.2333 71.7855 12.256 72.0864 12.2312C72.2073 12.2212 72.4191 11.9857 72.6956 12.0316C72.8547 12.0673 73.0082 12.1235 73.1559 12.2005C73.3157 12.3575 73.4853 12.3772 73.6647 12.2598C73.9562 12.4234 73.9849 12.7132 74.3402 12.7529C74.7332 12.7968 74.6068 12.2342 74.8767 13.0277C75.24 12.1865 75.3733 13.5266 75.7485 13.6348C76.1371 13.7471 76.1791 13.3852 76.5118 13.7806C76.6116 13.8991 76.606 14.0949 76.7179 14.2206C76.9014 14.4262 77.1496 14.3851 77.309 14.6656C77.2201 14.5091 77.3299 15.2205 77.3281 15.197C77.3528 15.5108 77.11 15.8625 77.6077 15.8357C77.6021 15.8687 77.3631 16.2689 77.3164 16.2236C77.305 16.1779 77.2953 16.1316 77.2877 16.0848C77.2343 16.1112 77.2105 16.4924 77.2204 16.5596C77.2626 16.5672 77.28 16.5312 77.2722 16.4516C77.1904 16.7456 77.3138 16.9323 77.1566 17.2113C77.0561 17.3897 76.7809 17.5237 76.6345 17.6338C76.2817 17.8996 75.9363 18.1661 75.592 18.4489C74.7893 19.1086 73.8904 19.9039 72.8794 20.0415C73.3872 19.4691 76.3084 17.3027 74.8432 16.6808C74.5715 16.5655 74.0767 16.4563 73.7925 16.4321C73.439 16.4019 73.0735 16.6343 72.6837 16.4893C72.2132 16.3146 72.3904 15.8067 72.1031 15.6246C71.4929 15.2381 71.637 16.147 71.4449 16.3851C71.2431 16.1419 71.2863 16.0236 70.9678 16.0016C70.6443 15.9792 70.5673 16.3225 70.1899 16.1087C69.6699 15.8139 69.9451 15.2269 69.2075 15.2131C69.2198 15.0842 69.3269 14.724 69.1861 14.6236C68.9963 14.9062 69.1432 15.2222 68.9671 15.4942C68.8789 15.6306 68.6877 15.7394 68.548 15.7836C68.2209 15.8867 68.1744 16.0842 68.2277 15.5188C67.9853 16.0202 67.2421 15.8139 66.8001 15.7635C66.0814 15.6814 65.3176 15.5253 64.6286 15.2606C63.9914 15.0157 63.6511 14.5951 63.1255 14.2124C62.9268 14.0676 62.832 14.1229 62.5471 14.0331C62.2658 13.9444 61.9918 13.7725 62.1242 13.3767ZM63.6407 4.49938C63.7492 4.42431 63.8272 5.54438 63.6956 5.75364C63.4549 5.31635 63.028 4.6749 63.6407 4.49938ZM63.9872 4.0526C64.3361 3.68999 64.0938 4.62657 64.0298 4.78371C63.9005 4.68855 63.7713 4.5934 63.642 4.49824C63.8069 4.38204 63.8481 4.19723 63.9872 4.0526ZM77.1507 2.5432C80.3742 3.31998 83.5682 4.77195 86.1535 7.16145C88.5085 9.33789 90.1706 12.4259 91.1024 15.7106C92.0697 19.1201 91.7447 22.9028 89.4435 25.5122C88.2312 26.8866 86.6303 27.7159 85.1046 28.5251C84.3736 28.9128 83.6208 29.2358 82.887 29.6145C82.3599 29.8865 81.7164 30.3217 81.115 30.2463C81.4218 29.8755 81.8669 29.8679 82.2384 29.6412C82.687 29.3671 83.0535 28.8411 83.4403 28.4654C83.8243 28.0924 84.676 26.9177 85.266 27.2021C85.1841 26.5763 85.805 26.2858 86.0848 25.8731C86.3807 25.4366 86.402 24.9261 86.9472 24.7832C86.3616 24.257 86.541 23.2645 86.6683 22.5482C86.8313 21.6321 86.9067 20.791 86.971 19.8588C87.0867 18.178 87.18 16.037 86.3713 14.5595C86.1089 14.0797 85.7748 13.6388 85.5407 13.1405C85.2585 12.54 85.3208 12.0113 85.3208 11.353C84.8049 11.7511 84.6961 10.9394 84.4781 10.5438C84.3146 10.247 84.0998 10.0811 84.047 9.70771C84.0086 9.43589 84.2655 9.39002 84.1247 9.10512C83.952 9.25486 83.8831 9.48688 83.7957 9.70221C83.6363 9.62904 83.8243 9.37428 83.7329 9.29145C83.7303 9.28917 83.4228 9.13583 83.4381 9.158C83.2403 8.87007 83.1767 8.39221 83.0797 8.0495C82.7173 8.26028 82.7851 8.23545 82.3808 7.88326C82.3096 7.82128 81.9538 7.53657 81.9204 7.4435C81.7639 7.00829 82.0381 7.26608 81.9614 6.99597C81.7413 6.22013 80.506 6.36685 80.408 5.20432C79.8056 5.64351 79.5759 5.02121 79.2198 4.57861C78.8548 4.1252 78.2426 3.95081 78.2754 3.23165C78.0858 3.30615 77.8962 3.38045 77.7068 3.45457C77.8052 2.79094 76.9468 2.83321 76.6358 2.49657C76.8084 2.49903 76.9801 2.51458 77.1507 2.5432ZM77.6417 43.6455C77.9404 43.3386 77.8497 43.7469 78.042 43.7003C78.2064 43.6603 78.2388 43.5176 78.3965 43.4738C79.046 43.2935 80.017 43.52 80.7 43.4812C81.491 43.4363 82.8471 43.6249 83.224 44.6877C83.4512 45.3278 83.1046 45.11 82.7228 45.0624C82.4267 45.0257 82.1635 45.0945 81.8706 45.0911C81.7257 45.1166 81.5814 45.1142 81.4376 45.0833C81.3674 45.0302 81.326 44.9555 81.3131 44.8592C80.9056 44.7883 80.4726 45.0653 80.0212 45.0791C79.4188 45.0975 78.8833 44.9648 78.4256 44.4978C78.2436 44.8092 78.1196 44.9637 77.7924 44.9986C77.7838 44.9995 77.4641 44.8517 77.4147 44.8369C77.3492 44.8173 77.1835 44.9752 77.0572 44.9301C77.2813 44.5203 77.3139 43.982 77.6417 43.6455ZM118.788 47.3443C118.894 46.9195 118.983 46.4892 119.08 46.0616C120.567 48.0056 121.869 50.608 122.454 53.1012C122.835 54.7213 123.427 57.6569 121.613 58.4924C120.136 59.1731 119.312 56.7332 118.938 55.5314C118.113 52.8786 118.113 50.0435 118.788 47.3443ZM52.2552 16.8828C52.2743 16.8785 51.2925 17.5341 51.616 17.0032C51.7459 16.7898 52.2387 16.6396 52.4573 16.6396L52.2552 16.8828ZM51.3108 17.1607C51.1972 17.2705 51.0825 17.3789 50.9667 17.4858C50.8556 17.2841 50.7443 17.0824 50.6332 16.8807C50.8523 16.7746 51.7827 16.695 51.3108 17.1607ZM50.6189 37.5467C50.4134 37.3869 50.2505 37.4718 50.1889 37.74C50.1889 37.4731 50.3099 36.8531 50.4959 36.7809C50.616 36.7341 50.0964 36.028 50.2425 35.8432C50.6139 36.0875 50.3915 36.3216 50.5003 36.637C50.5494 36.7794 50.697 36.914 50.7293 37.0233C50.784 37.2089 51.0058 37.8471 50.6189 37.5467ZM49.6125 35.9579C49.4021 36.0196 49.7704 36.4185 49.7701 36.5947C49.7698 36.728 49.6305 36.8304 49.5729 37.0127C49.4483 37.4079 49.6628 37.6748 49.3096 37.9764C49.3096 37.1105 48.8036 34.8162 49.776 34.3942C49.3017 33.9653 49.6913 33.4702 50.0631 33.9835C50.4205 34.4771 50.1928 35.7873 49.6125 35.9579ZM49.1059 32.541C48.9148 31.7627 48.3394 31.4905 47.6819 31.5365C47.7069 31.1381 47.9699 30.5636 48.1598 31.2818C48.238 31.0695 48.2921 30.7926 48.4701 30.6519C48.77 31.7316 50.265 32.3281 49.3342 33.498C49.2582 33.179 49.1842 32.8594 49.1059 32.541ZM47.3685 31.5945C43.9062 31.8829 39.0456 32.7078 36.2749 29.6604C34.4685 27.6733 34.5649 24.5788 36.0248 22.3711C36.8579 21.1114 37.9952 20.2243 39.1374 19.3792C39.5781 19.053 39.9515 18.8377 40.4354 18.6502C40.5137 18.6405 40.5874 18.6606 40.6563 18.7105C40.6835 18.5763 40.7493 18.477 40.8542 18.4121C41.041 18.2973 41.3072 18.2563 41.4149 18.0179C41.3 18.4656 41.2409 18.9266 41.1987 19.3898C41.1054 19.2651 41.0123 19.1404 40.9191 19.0157C40.8413 19.8594 40.0758 19.3487 39.6188 19.4541C39.9198 19.9325 40.1352 20.1064 40.1611 20.7387C39.9368 20.2633 39.4679 19.9507 39.032 19.7976C39.2688 20.6017 39.4361 21.0789 39.1977 21.9607C38.9099 21.7719 38.8904 21.3185 38.5412 21.2099C38.4491 21.7357 38.4327 22.3192 38.3147 22.8295C37.4204 22.3611 37.5077 23.6226 37.8667 24.2467C38.0577 24.5788 38.1515 24.9633 38.3218 25.2821C38.7397 26.064 38.4222 24.8946 38.8868 24.9502C38.7824 25.7749 38.7461 25.857 39.2717 26.4609C39.7847 27.0498 40.0508 27.867 40.5994 28.4203C40.7582 28.1872 40.5084 27.9432 40.4865 27.7201C40.9971 27.8185 41.2362 28.4063 41.727 27.8856C41.941 28.3646 42.1726 28.8921 42.6852 28.9905C42.3464 28.2508 43.3359 28.7524 43.5897 28.8574C43.7822 28.937 44.127 29.0003 44.2013 29.031C44.6194 29.2045 44.3327 28.8932 44.5865 29.4617C44.9591 29.3326 45.0997 28.9776 45.5453 29.2775C45.9077 29.5214 45.9085 29.9392 45.9913 30.3672C46.0777 30.0872 46.1649 29.8075 46.2604 29.5313C46.3577 29.5783 46.7657 30.0939 46.7212 30.0963C47.6761 30.0425 47.6423 30.7234 47.3685 31.5945ZM42.5073 17.6369C42.699 17.4824 42.9332 17.688 43.1485 17.6327C43.4466 17.5563 43.6159 17.2631 43.9489 17.2316C43.8563 17.5717 43.6823 17.5398 43.5353 17.8069C43.4851 17.8979 43.5112 18.1162 43.4667 18.1686C43.0934 18.6076 42.9645 18.2493 42.5835 17.917C42.6166 18.3177 42.6837 18.4444 42.355 18.5518C42.0574 18.6493 41.5662 18.2904 41.4162 18.0152C41.5427 17.7244 42.2778 17.8219 42.5073 17.6369ZM44.8829 17.0106C45.2062 17.046 44.8168 18.1413 44.3535 17.0788C44.5279 17.0352 44.7045 17.0125 44.8829 17.0106ZM46.5453 16.7989C47.055 16.6794 48.7557 16.1229 48.9449 17.0343C48.9789 17.0115 49.1054 16.4971 49.1642 16.5598C49.3996 16.8114 49.426 17.1448 49.4081 17.4941C49.1233 16.8133 49.2246 17.4113 49.0317 17.3647C48.9814 17.3524 48.9044 17.4604 48.7768 17.4158C48.6096 17.3573 48.4897 16.9488 48.3842 16.8104C48.2085 17.0985 47.9907 17.4695 47.6387 17.4445C47.3896 17.4268 46.9881 16.6902 47.3108 17.4966C47.1213 17.4248 46.902 17.2621 46.691 17.2947C46.4548 17.3313 46.3319 17.5991 46.1105 17.6424C45.6195 17.7379 45.5455 17.1954 45.2268 16.9008C45.6664 16.8715 46.1112 16.9005 46.5453 16.7989ZM49.6298 16.7901C49.6657 16.6032 50.1119 16.5278 50.2255 16.5871C50.5028 16.7318 50.4002 16.9226 50.3493 17.2403C50.1435 17.1285 49.9378 17.0168 49.732 16.905C50.0392 17.4729 49.4827 17.5554 49.6298 16.7901ZM135.99 50.055C135.954 48.6941 135.919 47.3096 135.619 45.9846C135.408 45.0573 134.892 43.3946 133.915 43.2336C132.441 42.9908 131.626 46.3349 131.213 47.4828C131.13 46.1313 131.202 44.6928 130.758 43.4101C130.402 42.3822 129.503 41.4086 128.728 42.563C128.039 43.5904 127.907 45.107 127.725 46.343C127.49 47.9448 127.349 49.5588 127.178 51.1702C126.505 49.6767 126.387 47.9671 125.855 46.4149C125.353 44.9502 124.563 43.5513 123.802 42.2485C123.181 41.1844 122.425 40.1839 121.452 39.5334C120.605 38.9672 119.123 38.3547 118.315 39.2951C117.642 40.0797 117.747 41.1296 117.782 42.1196C117.798 42.5605 117.858 42.8629 117.521 43.085C117.355 43.1942 117.095 43.1377 116.913 43.1961C116.619 43.2903 116.394 43.4499 116.145 43.662C114.403 45.1492 113.6 47.8293 113.351 50.2188C113.036 53.2463 114.064 55.8417 114.949 58.6118C115.09 59.0533 115.537 59.9899 115.475 60.4827C115.408 61.0227 114.817 61.0368 114.419 61.0479C113.216 61.0821 111.959 60.9791 110.762 60.8504C107.912 60.5443 105.065 58.9689 102.514 57.5625C102.048 57.3058 101.39 57.1589 101.01 56.7548C100.652 56.3749 100.558 55.7661 100.25 55.3303C99.4932 54.261 99.0112 53.3485 97.8968 52.7025C96.7622 52.0448 95.6043 51.4369 94.4972 50.7164C93.1282 49.8251 91.8633 48.6961 90.5512 47.6982C88.1132 45.844 85.6914 43.8112 83.1064 42.2345C81.9054 41.5017 80.563 41.383 79.3159 40.7831C78.1015 40.1989 76.6108 40.1981 75.3434 40.567C74.7261 40.7469 74.3061 41.173 73.7383 41.4511C73.0728 41.7771 72.5301 41.4173 71.9446 41.0282C71.0501 40.4338 70.1632 39.4651 71.4372 38.8239C71.8693 38.6063 72.4107 38.5238 72.7883 38.1817C73.1907 37.8172 73.5137 37.1446 73.841 36.688C74.5684 35.673 75.0028 34.5044 76.0675 33.8732C77.2448 33.175 78.6405 32.9851 79.8958 32.5289C81.2559 32.0347 82.5877 31.4471 83.9225 30.8701C86.3275 29.8306 88.8277 28.7082 90.5559 26.42C92.0464 24.4458 92.696 21.8976 92.6358 19.3095C92.5129 14.0185 90.0448 8.64887 86.5036 5.3408C82.1612 1.28438 76.6371 -0.0682641 71.1521 0.00262841C68.5779 0.0359896 65.5059 0.422866 63.3579 2.21887C61.5027 3.77017 61.194 6.48342 61.47 8.93263C61.582 9.92664 61.9648 11.2383 61.3543 12.1143C61.0127 12.6043 60.3994 12.7256 59.9392 13.0311C59.3609 13.415 58.8509 13.7829 58.1959 13.9859C55.4136 14.8487 52.4829 14.5483 49.638 14.5005C44.8991 14.4209 40.0415 15.8943 36.5062 19.729C33.6514 22.8253 32.7952 28.6641 36.2771 31.6827C39.0902 34.1213 43.5028 33.8531 46.8198 33.4277C47.8484 33.2956 48.5557 33.1038 48.558 34.5489C48.5606 36.1275 48.3329 37.7774 48.6836 39.3271C49.2361 41.7678 51.2783 41.826 53.084 41.3004C54.0367 41.0231 54.9577 40.6061 55.8625 40.1693C57.1895 39.5288 58.4059 38.5869 59.7165 37.9476C60.605 37.5143 61.2702 38.9156 62.0583 37.9442C62.2039 37.7647 62.2307 37.497 62.4503 37.4051C62.7946 37.2612 63.372 37.7658 63.6738 37.9254C64.1259 38.1644 64.5816 38.3401 64.7621 38.9156C64.9311 39.454 64.8571 40.31 64.6952 40.8411C64.3435 41.9955 63.3967 41.7673 62.5321 41.6901C61.0244 41.5553 59.5267 41.2697 58.0195 41.1497C56.6672 41.042 55.4009 41.5061 54.2344 42.2718C51.7846 43.8802 49.7803 46.4384 47.6562 48.5422C46.5629 49.625 45.5061 50.7945 44.3172 51.7373C43.8004 52.1473 43.2405 52.5242 42.7912 53.0337C42.3454 53.539 42.2964 53.9985 42.1439 54.671C41.8724 55.8684 40.5239 56.4538 39.681 57.0855C38.489 57.9789 37.2252 58.6092 35.889 59.1573C33.059 60.3182 30.2068 61.1287 27.2482 61.7279C25.7997 62.0213 24.3632 62.2141 22.9004 62.3725C21.6397 62.509 20.299 62.9548 19.0397 62.5987C19.4024 61.9231 20.0451 61.5175 20.5456 60.9952C21.1909 60.3221 21.7398 59.5245 22.2281 58.6981C23.1787 57.0888 23.8455 55.3619 23.9986 53.4099C24.1366 51.6532 23.9783 49.5516 23.0552 48.0676C22.7364 47.5549 22.1056 47.4153 21.8202 46.9536C21.5365 46.4945 21.6446 45.7043 21.4893 45.169C21.0938 43.8076 19.9201 42.1206 18.8872 41.33C17.7666 40.4719 16.1273 40.1566 14.8327 40.6038C12.4346 41.4321 10.9615 44.3751 9.86409 46.7538C9.26463 45.3052 10.2685 43.1563 9.09745 41.9701C8.10972 40.9694 7.32577 42.9078 6.99537 43.7371C5.44461 47.6299 5.09245 51.7587 4.4427 55.924C4.17793 55.6243 4.31361 54.8551 4.33851 54.4976C4.38484 53.8321 4.38055 53.1792 4.3817 52.5109C4.38484 50.8225 4.65819 49.1264 4.53289 47.4396C4.46051 46.4645 4.1898 44.4085 2.95608 44.7324C1.90982 45.0073 1.25447 46.6967 0.925722 47.7296C0.451559 49.2195 0.342086 50.6944 0.371598 52.2683C0.404242 54.0072 0.115721 55.7177 0.0458167 57.4542C-0.0900352 60.8273 0.0441681 64.1712 0.886978 67.4266C2.2671 72.7573 5.44033 77.1866 9.67548 79.8612C12.0089 81.335 14.5975 82.2674 17.259 82.4679C18.7012 82.5765 20.0935 82.3794 21.5235 82.2082C22.9346 82.0392 24.3531 81.9611 25.7617 81.7628C28.8989 81.3209 31.9557 80.1804 34.8071 78.6458C36.3081 77.8379 37.7195 76.8462 39.1959 75.9848C39.7883 75.6395 40.1886 75.2071 40.6941 74.7266C41.1953 74.2505 41.3341 74.2131 41.904 74.2131C41.7369 73.6994 42.2249 73.5411 42.442 73.2161C42.4298 73.3738 42.4176 73.5313 42.4054 73.6888C42.5709 73.2765 42.7251 73.2805 42.8677 73.7007C43.0087 73.2301 43.113 72.7462 43.2832 72.2874C43.9339 72.6656 43.8792 73.5646 44.7494 72.9082C45.466 72.368 46.125 71.7307 46.8556 71.2013C48.5197 69.995 49.9546 68.4255 51.6236 67.233C51.6236 68.3944 51.6949 69.5658 51.5598 70.7214C51.4312 71.82 51.0739 72.847 50.7898 73.8988C50.2659 75.8395 50.2296 77.9134 49.6491 79.8345C49.4089 80.63 48.7832 81.2953 48.6038 82.0699C48.421 82.8599 48.8434 83.493 48.1353 84.0118C47.636 84.3775 47.012 84.532 46.4592 84.7532C45.6159 85.0908 44.8153 85.5671 43.9944 85.971C40.1441 87.8656 36.3884 89.7951 32.8211 92.3425C29.4357 94.7598 25.9985 97.2564 22.8886 100.127C20.1895 102.619 17.4611 105.841 16.8041 109.905C16.1665 113.848 17.8652 118.079 21.276 119.378C23.0495 120.053 25.0544 119.97 26.9013 119.999C28.8886 120.03 30.9945 119.48 32.9484 119.082C35.0119 118.662 37.0399 118.004 39.1094 117.629C41.0949 117.269 42.916 116.464 44.869 115.968C46.9492 115.44 49.0828 115.153 51.1743 114.678C52.116 114.464 53.0386 114.148 53.9828 113.95C55.0166 113.733 56.0617 113.652 57.0853 113.365C59.0709 112.807 60.972 111.909 62.9662 111.391C63.8628 111.158 64.7456 110.845 65.6425 110.628C66.4684 110.427 67.1117 109.894 67.9393 110.332C68.6079 110.685 69.1412 111.292 69.774 111.714C70.5947 112.262 71.4599 112.753 72.3156 113.224C74.0348 114.172 75.8179 114.826 77.6155 115.538C79.5037 116.285 81.358 117.137 83.3142 117.63C85.3196 118.136 87.3655 118.277 89.3848 118.677C93.5204 119.496 97.6208 119.864 101.819 119.894C103.941 119.909 106.062 119.62 108.179 119.654C110.053 119.685 111.682 120.17 113.396 119.026C116.134 117.198 119.31 114.444 119.243 110.444C119.182 106.822 117.289 103.361 115.515 100.504C113.359 97.0339 110.286 94.5905 107.274 92.1971C104.064 89.6465 100.458 87.884 97.0842 85.6575C95.3587 84.5189 93.7673 83.2938 91.8938 82.4846C90.9994 82.0985 90.1269 81.6508 89.243 81.2349C88.5318 80.9003 87.5048 80.7155 86.8961 80.1603C86.5162 79.814 86.4798 79.2895 86.3796 78.7745C86.1573 77.6349 85.8083 76.5541 85.47 75.4551C84.8168 73.3328 84.3827 71.1714 84.1019 68.9456C83.8343 66.8238 83.2403 64.6172 83.5479 62.4609C85.5715 64.7086 87.6509 66.8693 89.7213 69.0575C90.4972 69.8775 91.2587 70.7147 92.0387 71.5298C92.6241 72.1417 93.3565 73.0506 94.1728 73.2322C95.2151 73.4642 94.8344 72.14 95.5501 71.9349C95.9875 71.8096 97.3067 73.0858 97.6526 73.3379C99.8447 74.9361 102.272 75.9488 104.683 77.0367C107.211 78.1772 109.812 79.1904 112.532 79.4775C115.045 79.7431 117.615 79.4023 120.04 78.6162C124.869 77.0505 128.423 73.3357 131.031 68.5203C134.003 63.0331 136.165 56.6052 135.99 50.055Z" fill="white"/>
<path fill-rule="evenodd" clip-rule="evenodd" d="M19.7836 41.1504C19.7828 41.152 19.7751 41.17 19.7751 41.17C19.7845 41.1628 19.7873 41.1563 19.7836 41.1504Z" fill="white"/>
<path fill-rule="evenodd" clip-rule="evenodd" d="M20.0161 41.2212C19.9981 41.0464 19.959 40.8753 19.899 40.7078C19.7392 40.9988 19.5962 41.1235 19.8062 41.4317C19.8761 41.3616 19.946 41.2914 20.0161 41.2212Z" fill="white"/>
<path fill-rule="evenodd" clip-rule="evenodd" d="M31.1524 82.8197C31.3312 82.6012 31.0184 82.5188 30.8996 82.5159C30.9114 82.7503 30.8102 83.3121 31.0895 83.4208C31.0225 83.2088 31.0435 83.0083 31.1524 82.8197Z" fill="white"/>
<path fill-rule="evenodd" clip-rule="evenodd" d="M26.4351 37.0957C26.1278 37.7772 26.8066 37.9887 27.1997 37.6594C27.4955 37.4119 27.6703 36.7808 27.7189 36.3759C27.8761 35.0658 27.0777 33.8188 26.6797 32.6564C26.5768 32.3559 26.4359 31.3254 26.1047 31.2971C25.7242 31.2646 25.696 32.2137 25.6911 32.4586C25.6764 33.197 25.8466 33.9491 26.0463 34.6462C26.2613 35.3977 26.7941 36.2997 26.4351 37.0957Z" fill="white"/>
<path fill-rule="evenodd" clip-rule="evenodd" d="M27.8968 34.3622C29.0781 35.5702 30.0231 33.5583 29.9406 32.3682C29.9202 32.0733 29.7467 30.9863 29.2598 31.3819C29.0151 31.5807 29.2237 32.2265 29.107 32.5101C28.542 33.885 27.9979 31.7524 27.6175 31.5849C27.1546 31.381 27.108 32.0795 27.1086 32.4528C27.1098 33.1939 27.4169 33.8714 27.8968 34.3622Z" fill="white"/>
<path fill-rule="evenodd" clip-rule="evenodd" d="M23.6087 34.5499C23.8869 34.0468 24.2291 33.3719 24.2669 32.7691C24.3256 31.8321 23.8502 31.9103 23.4588 32.5641C23.1824 33.0258 22.975 33.8092 22.3648 33.6145C21.6114 33.3744 21.8416 32.2111 21.4199 31.6583C20.3549 33.301 22.3703 36.7889 23.6087 34.5499Z" fill="white"/>
<path fill-rule="evenodd" clip-rule="evenodd" d="M25.2047 39.577C25.6453 39.6863 26.7937 39.646 26.3958 38.8715C25.894 37.8958 24.2251 39.3337 25.2047 39.577Z" fill="white"/>
<path fill-rule="evenodd" clip-rule="evenodd" d="M40.6363 10.4828C40.7169 10.207 40.6061 10.157 40.4139 9.93982C40.2318 10.1328 40.465 10.3358 40.6363 10.4828Z" fill="white"/>
<path fill-rule="evenodd" clip-rule="evenodd" d="M48.8524 60.4262C49.143 60.4793 49.2366 60.3028 49.1328 59.8966C48.6743 59.8625 48.581 60.039 48.8524 60.4262Z" fill="white"/>
<path fill-rule="evenodd" clip-rule="evenodd" d="M32.9838 17.8218C33.3043 17.9901 33.1815 18.3354 33.176 18.6272C33.3411 18.4211 33.6747 18.0444 33.5389 17.7485C33.3296 17.2921 32.7829 17.7165 32.9838 17.8218Z" fill="white"/>
<path fill-rule="evenodd" clip-rule="evenodd" d="M22.0651 12.078C22.0163 11.9685 21.9674 11.859 21.9186 11.7495C21.7195 11.933 21.4121 12.418 21.7285 12.6545C21.8582 12.4737 21.9704 12.2815 22.0651 12.078Z" fill="white"/>
<path fill-rule="evenodd" clip-rule="evenodd" d="M25.9111 15.2977C26.3099 15.6569 26.1186 14.5545 26.1066 14.4645C26.0473 14.5938 25.7096 15.1163 25.9111 15.2977Z" fill="white"/>
<path fill-rule="evenodd" clip-rule="evenodd" d="M25.69 14.7379C25.6595 14.6468 25.6289 14.5558 25.5984 14.4645C25.4368 14.6363 25.2387 14.9873 25.5058 15.1884C25.579 15.0476 25.6404 14.8975 25.69 14.7379Z" fill="white"/>
<path fill-rule="evenodd" clip-rule="evenodd" d="M28.223 18.5234C28.2556 18.558 28.2882 18.5925 28.3206 18.6272C28.4521 18.3225 28.3026 18.0936 28.0542 18.0842C28.0718 18.2553 28.1281 18.4017 28.223 18.5234Z" fill="white"/>
<path fill-rule="evenodd" clip-rule="evenodd" d="M17.5361 52.8038C17.6944 52.6801 17.838 52.539 17.9672 52.3807C17.499 52.052 17.7796 52.7644 17.216 52.3269C17.0945 52.5197 17.2929 52.9511 17.5361 52.8038Z" fill="white"/>
<path fill-rule="evenodd" clip-rule="evenodd" d="M37.2118 82.6969C37.3899 82.3831 37.422 82.3921 37.1789 82.1539C36.9761 82.5417 36.997 82.4421 37.2118 82.6969Z" fill="white"/>
<path fill-rule="evenodd" clip-rule="evenodd" d="M0 32.7582C0.0969277 32.8743 0.193852 32.9904 0.29078 33.1063C0.336024 32.9544 0.582785 32.5252 0.415206 32.3823C0.276862 32.5076 0.138344 32.6329 0 32.7582Z" fill="white"/>
<path fill-rule="evenodd" clip-rule="evenodd" d="M3.44718 33.9067C3.29244 33.877 2.92233 33.7474 2.83667 33.9126C3.06309 34.1257 3.57396 33.9311 3.44718 33.9067Z" fill="white"/>
</svg>
