<svg width="54" height="50" viewBox="0 0 54 50" fill="none" xmlns="http://www.w3.org/2000/svg">
<path d="M8.96775 36.4805C9.31534 36.8294 9.58168 37.2507 9.7478 37.7143C9.91392 38.1779 9.97573 38.6725 9.92882 39.1628C9.69347 41.4318 9.24729 43.6739 8.59605 45.8601C13.2675 44.7785 16.1205 43.5261 17.4165 42.8697C18.1515 42.4975 18.998 42.4092 19.794 42.6219C22.0759 43.2303 24.4278 43.5365 26.7894 43.5328C40.1707 43.5328 50.2301 34.1331 50.2301 23.4407C50.2301 12.7518 40.1707 3.34868 26.7894 3.34868C13.4081 3.34868 3.34868 12.7518 3.34868 23.4407C3.34868 28.3566 5.41481 32.9175 8.96775 36.4805ZM7.31686 49.5571C6.52345 49.7143 5.72747 49.8584 4.92925 49.989C4.25952 50.0962 3.75052 49.3997 4.01506 48.7768C4.3124 48.0756 4.58493 47.3641 4.83214 46.6437L4.84219 46.6102C5.67266 44.1992 6.34909 41.4265 6.59689 38.8446C2.48807 34.7258 0 29.3344 0 23.4407C0 10.4948 11.995 0 26.7894 0C41.5839 0 53.5788 10.4948 53.5788 23.4407C53.5788 36.3867 41.5839 46.8815 26.7894 46.8815C24.1361 46.885 21.4938 46.5405 18.9301 45.8568C17.1888 46.7375 13.4416 48.3415 7.31686 49.5571Z" fill="white"/>
</svg>
